<?xml version="1.0" encoding="utf-8"?>
<!-- Generator: Adobe Illustrator 28.3.0, SVG Export Plug-In . SVG Version: 6.00 Build 0)  -->
<svg version="1.1" id="Layer_1" xmlns="http://www.w3.org/2000/svg" xmlns:xlink="http://www.w3.org/1999/xlink" x="0px" y="0px"
	 viewBox="0 0 400 124" style="enable-background:new 0 0 400 124;" xml:space="preserve">
<style type="text/css">
	.st0{fill:#7D7D7D;}
	.st1{fill:#7E7E7E;}
	.st2{fill:#7C7C7C;}
	.st3{fill:#767676;}
	.st4{fill:#828282;}
	.st5{fill:#808080;}
	.st6{fill:#818181;}
	.st7{fill:#7F7F7F;}
</style>
<g>
	<path class="st0" d="M26.2,63.3c-0.4,0-0.7,0-1.1,0c0-3.1,0-6.2,0-9.3c0.1-0.1,0.3-0.3,0.4-0.4c0.1,0.1,0.3,0.1,0.4,0.2
		c0.1,0.2,0.3,0.4,0.3,0.6C26.2,57.3,26.2,60.3,26.2,63.3z"/>
	<path class="st0" d="M54.1,41.7c0.2-0.2,0.3-0.3,0.5-0.5c0.2,0.2,0.4,0.3,0.6,0.5c0,3,0,6.1,0,9.3c-0.3,0-0.7,0-1.1,0.1
		C54.1,47.9,54.1,44.9,54.1,41.7z"/>
	<path class="st0" d="M26.2,51c-0.4,0-0.7,0-1.1,0c0-3.1,0-6.1,0-9.1c0.1-0.2,0.3-0.4,0.5-0.6c0.3,0.2,0.4,0.4,0.6,0.5
		C26.2,44.8,26.2,47.8,26.2,51z"/>
	<path class="st0" d="M55.2,38.7c-0.4,0-0.7,0-1.1,0c0-3,0-6.1,0-9.3c0.1-0.1,0.2-0.2,0.5-0.4c0.2,0.1,0.4,0.3,0.6,0.4
		C55.2,32.5,55.2,35.5,55.2,38.7z"/>
	<path class="st0" d="M25.1,29.4c0.2-0.2,0.3-0.3,0.5-0.5c0.2,0.2,0.4,0.3,0.6,0.5c0,3,0,6.1,0,9.3c-0.3,0-0.7,0-1.1,0.1
		C25.1,35.6,25.1,32.6,25.1,29.4z"/>
	<path class="st0" d="M54.2,17.1c0.2-0.2,0.3-0.3,0.5-0.5c0.2,0.2,0.4,0.3,0.6,0.5c0,3,0,6.1,0,9.3c-0.3,0-0.7,0-1.1,0.1
		C54.2,23.3,54.2,20.2,54.2,17.1z"/>
	<path class="st1" d="M288.5,65.8c0.4,0.2,0.8,0.4,1.1,0.5c-1.3,2.8-2.5,5.5-3.8,8.2c-0.4-0.2-0.7-0.3-1.1-0.5
		c0.3-0.6,0.7-1.2,0.9-1.8c0.8-1.8,1.5-3.6,2.5-5.4C288.4,66.6,288.4,66.3,288.5,65.8z"/>
	<path class="st1" d="M285.8,99.1c-0.3-0.1-0.6-0.3-1-0.5c0-0.1,0-0.3,0.1-0.4c1.1-2.3,2.3-4.7,3.4-7c0.1-0.2,0-0.4,0-0.5
		c0.5-0.3,0.9-0.1,1.2,0.3c0,0.1,0,0.2-0.1,0.4c-0.5,1-1,1.9-1.4,2.9c-0.4,1-1,1.8-1.2,2.9C286.7,97.9,286.2,98.5,285.8,99.1z"/>
	<path class="st1" d="M144.3,91c-1.3,2.8-2.5,5.4-3.7,8.2c-0.3-0.2-0.7-0.3-1.1-0.5c0.2-0.4,0.4-0.9,0.6-1.3c0.9-2,1.8-3.9,2.8-5.9
		c0.1-0.3,0.2-0.6,0.4-1C143.6,90.7,143.9,90.8,144.3,91z"/>
	<path class="st1" d="M114.1,90.4c0.5,0.2,0.8,0.3,1.2,0.5c-1.3,2.8-2.5,5.5-3.8,8.2c-0.4-0.2-0.7-0.3-1.1-0.5
		c0.3-0.5,0.5-1.1,0.8-1.6c0.9-1.9,1.9-3.8,2.8-5.7C114,91.2,114,90.9,114.1,90.4z"/>
	<path class="st1" d="M26.8,102.9c0.6-0.1,1,0,1.2,0.5c-1.2,2.7-2.4,5.3-3.7,8c-0.4-0.2-0.7-0.3-1-0.5c0-0.1,0-0.3,0.1-0.4
		c1.1-2.3,2.3-4.7,3.4-7C26.9,103.4,26.8,103.2,26.8,102.9z"/>
	<path class="st1" d="M53.4,111.5c-0.4-0.2-0.7-0.3-1.1-0.5c0.2-0.4,0.4-0.9,0.6-1.3c0.9-2,1.8-3.9,2.8-5.9c0.1-0.3,0.2-0.6,0.4-1
		c0.4,0.2,0.7,0.3,1.1,0.5C55.8,106.1,54.6,108.7,53.4,111.5z"/>
	<path class="st1" d="M82.4,62.2c-0.4-0.2-0.7-0.3-1.1-0.5c0.3-0.5,0.5-1.1,0.8-1.6c0.9-1.9,1.9-3.8,2.8-5.7
		c0.1-0.2,0.1-0.5,0.1-0.7c0.2,0,0.5,0,0.7,0c0.1,0.1,0.2,0.2,0.4,0.4C84.9,56.8,83.7,59.5,82.4,62.2z"/>
	<path class="st1" d="M198.7,111.5c-0.4-0.2-0.7-0.4-1-0.5c1.2-2.7,2.5-5.3,3.8-8.1c0.4-0.2,0.7,0.1,1,0.5
		C201.2,106,200,108.7,198.7,111.5z"/>
	<path class="st1" d="M24.3,13c-0.4-0.2-0.7-0.4-1-0.5c1.2-2.7,2.5-5.3,3.8-8.1c0.3,0.1,0.6,0.3,1,0.4C26.8,7.6,25.6,10.2,24.3,13z"
		/>
	<path class="st1" d="M114,53.7c0.3,0,0.5,0,0.7,0c0.1,0.1,0.3,0.3,0.5,0.5c-1.2,2.7-2.5,5.4-3.7,8.1c-0.4-0.2-0.7-0.3-1.1-0.5
		c0.3-0.5,0.5-1.1,0.8-1.6c0.9-1.9,1.9-3.8,2.8-5.7C114,54.2,114,54,114,53.7z"/>
	<path class="st1" d="M288.6,29c0.4-0.1,0.7,0.1,1,0.5c-1.2,2.6-2.4,5.3-3.7,8c-0.4-0.2-0.7-0.3-1.1-0.5
		C286.1,34.4,287.3,31.8,288.6,29z"/>
	<path class="st1" d="M259.3,28.9c0.5,0.2,0.9,0.4,1.1,0.5c0,0.2,0.1,0.3,0,0.4c-0.5,1-1,1.9-1.4,2.9c-0.4,1-1.1,1.9-1.3,3
		c-0.1,0.7-0.7,1.3-1,2c-0.3-0.1-0.6-0.3-1-0.5c0-0.1,0-0.3,0.1-0.4c1.1-2.3,2.3-4.7,3.4-7C259.4,29.5,259.3,29.3,259.3,28.9z"/>
	<path class="st1" d="M259.5,53.7c0.1,0,0.3-0.1,0.5,0c0.2,0.1,0.4,0.3,0.5,0.5c-1.2,2.7-2.5,5.4-3.7,8.1c-0.4-0.2-0.7-0.3-1.1-0.5
		C257,59,258.3,56.4,259.5,53.7z"/>
	<path class="st1" d="M111.4,123.8c-0.3-0.1-0.6-0.3-1-0.5c0-0.1,0-0.3,0.1-0.4c1.1-2.3,2.3-4.7,3.4-7c0.1-0.2,0-0.4,0-0.5
		c0.5-0.3,0.9-0.1,1.1,0.3c0,0.1,0.1,0.2,0,0.3c-0.5,1-1,1.9-1.4,2.9c-0.4,1-1.1,1.9-1.3,3C112.4,122.5,111.8,123.1,111.4,123.8z"/>
	<path class="st1" d="M53.4,74.5c-0.3-0.2-0.7-0.3-1-0.5c0-0.1,0-0.3,0.1-0.4c1.1-2.3,2.3-4.7,3.4-7c0.1-0.2,0-0.4,0-0.6
		c0.6-0.2,0.9-0.1,1.2,0.5C55.8,69.2,54.6,71.8,53.4,74.5z"/>
	<path class="st1" d="M344,25.3c-0.4-0.2-0.7-0.3-1.1-0.5c0.3-0.6,0.7-1.2,0.9-1.8c0.8-1.8,1.5-3.6,2.5-5.4c0.1-0.2,0.1-0.5,0.2-0.8
		c0.5-0.2,0.8,0,1.1,0.4C346.5,19.9,345.2,22.6,344,25.3z"/>
	<path class="st1" d="M26.9,65.8c0.4,0.2,0.8,0.4,1.1,0.5c-1.3,2.8-2.5,5.5-3.8,8.2c-0.4-0.2-0.7-0.3-1.1-0.5
		c0.3-0.6,0.7-1.2,0.9-1.8c0.8-1.8,1.5-3.6,2.5-5.4C26.8,66.6,26.8,66.3,26.9,65.8z"/>
	<path class="st1" d="M314.9,74.5c-0.4-0.2-0.7-0.4-1-0.5c1.3-2.7,2.5-5.3,3.8-8.1c0.3,0.1,0.6,0.3,1,0.5
		C317.4,69.1,316.2,71.8,314.9,74.5z"/>
	<path class="st1" d="M375.7,115.1c0.4,0.2,0.7,0.3,1.1,0.5c-1.3,2.8-2.5,5.4-3.7,8.2c-0.3-0.2-0.7-0.3-1.1-0.5
		c0.2-0.4,0.4-0.9,0.6-1.3c0.9-2,1.8-3.9,2.8-5.9C375.5,115.8,375.6,115.5,375.7,115.1z"/>
	<path class="st1" d="M290.7,4.9c0.2-0.2,0.3-0.3,0.5-0.5c0.2,0,0.4,0,0.5,0c1.2,2.7,2.5,5.3,3.8,8c-0.3,0.2-0.7,0.3-1,0.5
		C293.2,10.3,292,7.6,290.7,4.9z"/>
	<path class="st1" d="M237.3,61.7c-0.4,0.2-0.7,0.3-1,0.5c-1.2-2.7-2.5-5.3-3.7-8c0.4-0.5,0.4-0.5,0.9-0.6
		C234.8,56.3,236.1,59,237.3,61.7z"/>
	<path class="st1" d="M378.8,53.6c1.3,2.8,2.5,5.4,3.8,8.1c-0.3,0.2-0.6,0.3-0.9,0.5c-0.1-0.1-0.2-0.1-0.3-0.1
		c-0.6-1.5-1.3-3.1-2.1-4.5c-0.6-1.1-1-2.2-1.5-3.5C378.2,53.9,378.5,53.7,378.8,53.6z"/>
	<path class="st1" d="M0,66.3c0.4-0.2,0.7-0.3,1-0.4c1.3,2.8,2.5,5.4,3.8,8.1c-0.3,0.2-0.6,0.3-1,0.5C2.5,71.8,1.3,69.2,0,66.3z"/>
	<path class="st1" d="M174.4,91.1c0.2-0.2,0.4-0.4,0.6-0.5c0.2-0.1,0.4,0,0.5,0c1.3,2.7,2.5,5.3,3.8,8c-0.3,0.2-0.6,0.3-0.9,0.5
		c-0.1-0.1-0.2-0.1-0.3-0.1c-0.6-1.5-1.3-3-2-4.4C175.4,93.5,175.1,92.2,174.4,91.1z"/>
	<path class="st1" d="M174.4,41.8c0.2-0.2,0.3-0.4,0.5-0.5c0.2-0.1,0.4,0,0.5,0c1.3,2.7,2.5,5.3,3.8,8c-0.3,0.2-0.6,0.3-0.9,0.5
		c-0.1-0.1-0.2-0.1-0.3-0.1c-0.6-1.5-1.3-3-2-4.4C175.4,44.2,175,43,174.4,41.8z"/>
	<path class="st1" d="M145.3,41.7c0.4-0.2,0.7-0.3,1-0.5c1.3,2.7,2.5,5.4,3.8,8.1c-0.3,0.2-0.6,0.3-1,0.6
		C147.9,47.2,146.6,44.6,145.3,41.7z"/>
	<path class="st1" d="M121.1,49.4c-0.4,0.2-0.7,0.3-1,0.5c-1.2-2.7-2.5-5.3-3.7-8c0.1-0.5,0.5-0.6,0.9-0.5
		C118.5,44,119.8,46.6,121.1,49.4z"/>
	<path class="st1" d="M348.8,90.9c0.4-0.2,0.7-0.3,1-0.4c1.3,2.7,2.5,5.4,3.8,8.1c-0.3,0.2-0.7,0.3-1,0.5
		C351.3,96.4,350.1,93.8,348.8,90.9z"/>
	<path class="st1" d="M348.8,66.5c0.3-0.4,0.6-0.6,1-0.5c1.3,2.7,2.5,5.4,3.8,8c-0.3,0.2-0.7,0.3-1,0.5
		C351.3,71.9,350.1,69.2,348.8,66.5z"/>
	<path class="st1" d="M174.4,66.4c0.2-0.2,0.3-0.3,0.5-0.5c0.2,0,0.4,0,0.5,0c1.2,2.7,2.5,5.3,3.8,8c-0.3,0.2-0.7,0.3-1,0.5
		C176.9,71.8,175.7,69.2,174.4,66.4z"/>
	<path class="st1" d="M116.3,17.1c0.4-0.2,0.7-0.3,1-0.4c1.3,2.8,2.5,5.4,3.8,8.1c-0.3,0.2-0.6,0.3-1,0.5
		C118.8,22.6,117.6,19.9,116.3,17.1z"/>
	<path class="st1" d="M33.9,12.4c-0.3,0.2-0.6,0.3-1,0.5c-1.2-2.7-2.5-5.4-3.8-8.2c0.4-0.2,0.7-0.3,1-0.4
		C31.4,7.1,32.6,9.8,33.9,12.4z"/>
	<path class="st1" d="M208.3,61.7c-0.3,0.2-0.7,0.3-1,0.5c-1.2-2.7-2.4-5.3-3.7-8c0.2-0.5,0.5-0.6,1-0.5
		C205.8,56.4,207,59,208.3,61.7z"/>
	<path class="st1" d="M203.4,29.4c0.4-0.2,0.7-0.3,1-0.4c1.3,2.7,2.5,5.4,3.8,8.1c-0.3,0.2-0.7,0.3-1,0.5
		C206,34.9,204.8,32.2,203.4,29.4z"/>
	<path class="st1" d="M266.4,61.7c-0.4,0.2-0.7,0.3-1,0.5c-1.2-2.7-2.5-5.4-3.7-8.2c0.2-0.1,0.4-0.2,0.6-0.3c0,0-0.1-0.1-0.1-0.1
		c0.2,0,0.4,0,0.5,0C263.9,56.3,265.1,59,266.4,61.7z"/>
	<path class="st1" d="M348.8,41.7c0.4-0.2,0.7-0.3,1-0.5c0.4,1,0.8,1.8,1.1,2.6c0.9,1.8,1.8,3.6,2.7,5.5c-0.3,0.2-0.6,0.3-1,0.5
		C351.3,47.2,350.1,44.5,348.8,41.7z"/>
	<path class="st1" d="M204.5,78.3c0.4,0.9,0.8,1.6,1.1,2.4c0.9,1.9,1.8,3.7,2.7,5.7c-0.3,0.2-0.7,0.3-1,0.5c-1.2-2.7-2.5-5.4-3.7-8
		C203.7,78.4,204.1,78.2,204.5,78.3z"/>
	<path class="st1" d="M92,86.3c-0.4,0.2-0.7,0.3-1,0.5c-1.2-2.7-2.5-5.4-3.7-8c0.2-0.5,0.5-0.6,0.9-0.5C89.5,80.9,90.7,83.6,92,86.3
		z"/>
	<path class="st1" d="M348.8,115.7c0.2-0.2,0.3-0.3,0.5-0.5c0.2,0,0.4,0,0.5,0c1.2,2.7,2.5,5.3,3.8,8c-0.3,0.2-0.7,0.3-1,0.5
		C351.3,121.1,350.1,118.4,348.8,115.7z"/>
	<path class="st1" d="M377.8,17.1c0.4-0.2,0.7-0.3,1-0.5c1.3,2.7,2.5,5.4,3.8,8.1c-0.3,0.2-0.6,0.3-1,0.6
		C380.4,22.6,379.2,19.9,377.8,17.1z"/>
	<path class="st1" d="M360.5,17.4c0.3-0.3,0.4-0.5,0.6-0.8c0.2,0.2,0.5,0.3,0.5,0.5c0.1,0.9,0.7,1.7,1.1,2.5
		c0.7,1.6,1.5,3.2,2.3,4.8c0,0.1,0,0.2,0,0.4c-0.1,0.1-0.3,0.3-0.5,0.5c-0.2-0.1-0.3-0.1-0.4-0.2c-0.2-0.3-0.4-0.5-0.5-0.8
		c-0.3-1.4-1.2-2.4-1.7-3.7C361.5,19.5,361,18.4,360.5,17.4z"/>
	<path class="st1" d="M67.9,78c0.4,0.4,0.6,0.6,0.7,0.7c-0.4,1-0.6,1.9-1,2.7c-0.9,1.8-1.8,3.6-2.7,5.5c-0.3-0.3-0.6-0.4-0.9-0.7
		C65.2,83.5,66.5,80.9,67.9,78z"/>
	<path class="st1" d="M196.6,12.4c-0.3,0.1-0.6,0.3-0.9,0.4c0,0-0.3-0.1-0.3-0.3c-0.9-2.6-2.5-4.9-3.3-7.6c0.2-0.2,0.3-0.4,0.5-0.6
		c0.3,0.2,0.4,0.3,0.5,0.4C194.2,7.2,195.4,9.8,196.6,12.4z"/>
	<path class="st0" d="M294.4,115.1c0.4,0.2,0.7,0.3,1.1,0.5c-0.3,0.5-0.5,1.1-0.7,1.6c-1,2-1.9,4.1-2.9,6.1c-0.3,0-0.7,0-1.2,0
		C291.9,120.6,293.1,117.9,294.4,115.1z"/>
	<path class="st0" d="M294.4,16.6c0.4,0.2,0.7,0.3,1.1,0.5c-0.2,0.5-0.5,1-0.7,1.6c-1,2-1.9,4.1-2.9,6.1c-0.3,0-0.7,0-1.2,0
		C291.9,22.1,293.1,19.4,294.4,16.6z"/>
	<path class="st1" d="M99.5,78.1c0.3,0.2,0.4,0.3,0.5,0.4c1.2,2.6,2.4,5.1,3.6,7.8c-0.2,0.3-0.4,0.5-0.6,0.8
		c-0.3-0.3-0.6-0.4-0.6-0.6c-0.9-2.6-2.5-4.9-3.3-7.6C99.1,78.6,99.3,78.3,99.5,78.1z"/>
	<path class="st1" d="M210,123.9c-0.3-0.3-0.5-0.5-0.6-0.7c0-0.8,0.5-1.4,0.9-2c0.9-2,1.8-3.9,2.7-5.9c0-0.1,0.1-0.1,0.3-0.2
		c0.2,0.2,0.4,0.3,0.6,0.6c-0.3,0.7-0.5,1.5-0.8,2.1c-0.8,1.8-1.6,3.5-2.5,5.2C210.5,123.3,210.3,123.5,210,123.9z"/>
	<path class="st0" d="M120,78.2c0.4,0.2,0.7,0.3,1.1,0.5c-0.3,0.5-0.5,1.1-0.7,1.6c-1,2-1.9,4.1-2.9,6.1c-0.3,0-0.7,0-1.2,0
		C117.5,83.6,118.8,81,120,78.2z"/>
	<path class="st1" d="M186,115.9c0.4-0.3,0.6-0.5,0.8-0.8c0.8,0.8,0.9,1.9,1.4,2.7c0.5,0.8,0.8,1.7,1.2,2.6c0.4,0.9,0.8,1.8,1.3,2.8
		c-0.2,0.2-0.4,0.5-0.7,0.8c-1-1.3-1.2-2.8-2-4.1C187.2,118.6,187,117.1,186,115.9z"/>
	<path class="st0" d="M146.5,86.4c-0.4,0-0.7,0-1.2,0c1.3-2.8,2.5-5.5,3.8-8.2c0.4,0.2,0.7,0.3,1.1,0.5c-0.3,0.5-0.5,1.1-0.8,1.6
		C148.4,82.3,147.5,84.4,146.5,86.4z"/>
	<path class="st1" d="M132.6,12.4c-0.2,0.3-0.4,0.5-0.6,0.8c-0.3-0.3-0.6-0.4-0.6-0.6c-0.9-2.6-2.5-4.9-3.3-7.6
		c0.3-0.1,0.5-0.2,0.9-0.4c-0.1-0.1,0.1,0,0.1,0.1C130.2,7.2,131.4,9.8,132.6,12.4z"/>
	<path class="st1" d="M108.6,123.9c-0.2-0.4-0.5-0.7-0.6-1c-0.6-1.2-1.1-2.4-1.6-3.6c-0.4-1-0.9-2-1.4-2.9c-0.3-0.6,0-0.9,0.5-1.2
		c0.2,0.2,0.5,0.4,0.5,0.6c0,0.6,0.4,1,0.6,1.5c0.8,1.8,1.6,3.5,2.4,5.3C109.4,123.1,109.4,123.1,108.6,123.9z"/>
	<path class="st1" d="M196.6,86.2c-0.3,0.3-0.5,0.4-0.8,0.7c-0.9-1.3-1.3-2.8-2-4.1c-0.7-1.3-1.2-2.6-1.9-4c0.2-0.3,0.4-0.5,0.7-0.8
		c0.8,0.8,0.9,1.9,1.4,2.7c0.5,0.8,0.8,1.7,1.2,2.6C195.7,84.3,196.1,85.2,196.6,86.2z"/>
	<path class="st0" d="M32.9,115.2c0.4,0.2,0.7,0.4,1,0.5c-1.2,2.6-2.4,5.2-3.6,7.7c-0.4,0-0.7,0-1,0c0-0.1-0.1-0.2-0.1-0.3
		c0.9-2,1.9-4,2.7-6C32.1,116.4,32.5,115.9,32.9,115.2z"/>
	<path class="st1" d="M35.6,87c-0.3-0.3-0.5-0.5-0.6-0.7c0-0.8,0.6-1.4,0.9-2c0.9-2,1.8-3.9,2.7-5.9c0-0.1,0.1-0.1,0.3-0.2
		c0.2,0.2,0.4,0.3,0.6,0.6c-0.3,0.7-0.5,1.5-0.8,2.1c-0.8,1.8-1.6,3.5-2.5,5.2C36.1,86.4,35.9,86.6,35.6,87z"/>
	<path class="st1" d="M225.7,86.2c-0.2,0.3-0.4,0.5-0.6,0.8c-0.3-0.3-0.6-0.4-0.6-0.6c-0.9-2.6-2.5-4.9-3.3-7.6
		c0.2-0.2,0.3-0.4,0.5-0.6c0.3,0.2,0.4,0.3,0.5,0.4C223.3,81.1,224.4,83.6,225.7,86.2z"/>
	<path class="st1" d="M273.3,78.8c0.2-0.2,0.3-0.4,0.5-0.6c0.3,0.2,0.4,0.3,0.5,0.4c1.2,2.6,2.4,5.1,3.6,7.8
		c-0.2,0.3-0.4,0.5-0.6,0.8c-0.3-0.3-0.6-0.4-0.6-0.6C275.8,83.8,274.2,81.5,273.3,78.8z"/>
	<path class="st0" d="M291.8,86.5c-0.3,0-0.7,0-1,0c0-0.2-0.1-0.3,0-0.4c0.9-1.9,1.9-3.9,2.7-5.9c0.2-0.6,0.6-1.2,1-1.9
		c0.3,0.1,0.7,0.3,1,0.4C294.2,81.3,293,83.9,291.8,86.5z"/>
	<path class="st1" d="M297.2,111.7c-0.4-0.4-0.6-0.6-0.8-0.8c1.3-2.8,2.6-5.4,3.8-8.2c0.3,0.2,0.5,0.4,0.8,0.6
		c-0.4,0.9-0.6,1.8-1,2.6C299.2,107.8,298.3,109.6,297.2,111.7z"/>
	<path class="st1" d="M395.4,54.2c0.2-0.3,0.4-0.4,0.6-0.7c0.2,0.1,0.4,0.2,0.5,0.4c0.5,1.6,1.5,2.9,2,4.4c0.3,0.9,0.9,1.8,1.3,2.7
		c0.1,0.2,0.1,0.3,0.2,0.6c-0.2,0.2-0.4,0.4-0.6,0.6c-0.2-0.1-0.3-0.1-0.4-0.2c-0.2-0.3-0.4-0.5-0.5-0.8c-0.3-1.3-1.2-2.4-1.7-3.7
		C396.4,56.4,395.9,55.4,395.4,54.2z"/>
	<path class="st0" d="M262.8,24.9c-0.4,0-0.7,0-1.2,0c1.3-2.8,2.5-5.5,3.8-8.2c0.4,0.2,0.7,0.3,1.1,0.5c-0.3,0.5-0.5,1.1-0.8,1.6
		C264.7,20.8,263.7,22.8,262.8,24.9z"/>
	<path class="st1" d="M367.2,53.5c0.2,0.2,0.3,0.4,0.4,0.5c0.2,1.2,1,2.1,1.4,3.2c0.5,1.3,1.1,2.6,1.8,3.8c0.3,0.6,0,0.9-0.5,1.2
		c-0.3-0.4-0.7-0.7-0.7-1.1c-0.2-1-0.8-1.7-1.2-2.6c-0.6-1.3-1.2-2.5-1.8-3.8C366.3,54.2,366.5,53.9,367.2,53.5z"/>
	<path class="st1" d="M326.2,62.4c-0.3-0.4-0.4-0.5-0.6-0.8c0-0.7,0.5-1.3,0.9-1.9c0.9-2,1.8-3.9,2.7-5.9c0-0.1,0.1-0.1,0.3-0.2
		c0.2,0.2,0.4,0.3,0.6,0.6c-0.3,0.7-0.5,1.5-0.8,2.1c-0.8,1.8-1.6,3.5-2.5,5.2C326.7,61.8,326.5,62,326.2,62.4z"/>
	<path class="st1" d="M93.8,37.7c-0.8-0.7-0.8-0.7-0.5-1.4c1.2-2.4,2.3-4.9,3.5-7.4c0.3,0.2,0.5,0.4,0.8,0.6
		c-0.3,0.7-0.5,1.5-0.8,2.2c-0.8,1.8-1.7,3.5-2.5,5.2C94.2,37.1,94,37.3,93.8,37.7z"/>
	<path class="st0" d="M294.4,53.6c0.4,0.2,0.7,0.4,1,0.5c-1.2,2.6-2.4,5.2-3.6,7.7c-0.3,0-0.7,0-1,0c0-0.1-0.1-0.2-0.1-0.3
		c0.9-2,2-4,2.7-6C293.7,54.9,294.1,54.3,294.4,53.6z"/>
	<path class="st1" d="M277.9,61.7c-0.2,0.2-0.4,0.4-0.6,0.5c-0.1-0.1-0.3-0.1-0.4-0.2c-0.2-0.3-0.4-0.5-0.5-0.8
		c-0.4-1.4-1.2-2.5-1.8-3.8c-0.5-1-0.9-2.1-1.3-3.2c0.2-0.2,0.3-0.4,0.6-0.7c0.2,0.2,0.6,0.4,0.6,0.5c0,0.8,0.5,1.3,0.8,2
		C276.2,57.9,277,59.7,277.9,61.7z"/>
	<path class="st1" d="M219.8,24.7c-0.2,0.2-0.4,0.3-0.7,0.5c-0.1,0-0.2-0.1-0.3-0.2c-0.2-0.3-0.4-0.5-0.5-0.8
		c-0.4-1.4-1.2-2.5-1.8-3.8c-0.5-1-0.9-2.1-1.3-3.2c0.2-0.2,0.3-0.4,0.6-0.7c0.2,0.2,0.6,0.4,0.6,0.5c0,0.8,0.5,1.3,0.8,2
		C218.1,21,218.9,22.8,219.8,24.7z"/>
	<path class="st1" d="M125.9,65.7c0.4,0.3,0.5,0.5,0.8,0.7c-0.3,0.9-0.5,1.8-1,2.6c-0.9,1.6-1.6,3.2-2.3,4.9
		c-0.1,0.2-0.3,0.4-0.5,0.7c-0.3-0.3-0.5-0.4-0.8-0.7c0.4-0.8,0.8-1.6,1.2-2.4C124.1,69.6,125,67.8,125.9,65.7z"/>
	<path class="st0" d="M178.2,29c0.3,0.2,0.7,0.3,1,0.5c-1.2,2.6-2.4,5.1-3.6,7.7c-0.3,0-0.7,0-1,0c0-0.1-0.1-0.3,0-0.4
		c0.5-1,1-1.9,1.4-2.9c0.4-1,1.1-1.9,1.3-3C177.3,30.2,177.8,29.6,178.2,29z"/>
	<path class="st0" d="M349.9,12.6c-0.3,0-0.7,0-1,0c0-0.1-0.1-0.2-0.1-0.3c0.5-1,1-2,1.4-3.1c0.4-1,1.1-1.9,1.3-3
		c0.1-0.6,0.6-1.2,0.9-1.9c0.3,0.1,0.6,0.3,1,0.4c0,0.1,0,0.3,0,0.4c-0.6,1.2-1.3,2.4-1.7,3.7C351.3,10.1,350.5,11.3,349.9,12.6z"/>
	<path class="st1" d="M196.6,37c-0.2,0.3-0.4,0.5-0.6,0.8c-0.3-0.3-0.6-0.4-0.6-0.6c-0.9-2.6-2.5-4.9-3.3-7.6
		c0.2-0.2,0.3-0.4,0.4-0.5c1,0.1,0.7,0.9,1,1.2c0.3,0.4,0.5,0.9,0.7,1.3c0.2,0.4,0.4,0.9,0.6,1.4c0.2,0.5,0.4,0.9,0.6,1.4
		c0.2,0.5,0.4,0.9,0.6,1.4C196.1,36.1,196.4,36.5,196.6,37z"/>
	<path class="st0" d="M381.6,65.9c0.4,0.2,0.7,0.4,1,0.5c-0.5,1.4-1.3,2.6-1.8,4c-0.4,1.3-1.2,2.5-1.9,3.7c-0.3,0-0.7,0-1,0
		c0-0.1-0.1-0.2-0.1-0.3c0.9-2,1.9-4,2.7-6C380.9,67.2,381.2,66.6,381.6,65.9z"/>
	<path class="st1" d="M221,29.6c0.2-0.3,0.4-0.4,0.6-0.7c0.2,0.1,0.4,0.2,0.5,0.4c0.5,1.6,1.5,2.9,2,4.4c0.3,0.9,0.9,1.8,1.3,2.7
		c0.1,0.2,0.1,0.3,0.2,0.6c-0.2,0.2-0.4,0.4-0.6,0.6c-0.2-0.1-0.3-0.1-0.4-0.2c-0.2-0.3-0.4-0.5-0.5-0.8c-0.3-1.3-1.2-2.4-1.7-3.7
		C222.1,31.8,221.6,30.8,221,29.6z"/>
	<path class="st1" d="M155.1,65.9c0.2,0.2,0.4,0.3,0.6,0.6c-0.3,0.7-0.5,1.5-0.8,2.1c-0.8,1.8-1.6,3.5-2.5,5.2
		c-0.1,0.2-0.3,0.4-0.5,0.7c-0.3-0.2-0.5-0.4-0.7-0.6c0-0.8,0.5-1.4,0.9-2c0.9-2,1.8-3.9,2.7-5.9C154.8,66.1,155,66,155.1,65.9z"/>
	<path class="st1" d="M271.5,28.9c0.1,0.3,0.2,0.6,0.3,0.9c0.1-0.1,0.2-0.1,0.2-0.2c-0.2,0.7-0.4,1.4-0.7,2
		c-0.8,1.8-1.7,3.5-2.5,5.2c-0.1,0.3-0.3,0.5-0.6,1c-0.3-0.4-0.5-0.6-0.7-0.8c1.3-2.7,2.5-5.3,3.7-8C271.3,29,271.4,28.9,271.5,28.9
		z"/>
	<path class="st1" d="M51.3,12.4c-0.3,0.3-0.5,0.4-0.8,0.7c-0.9-1.3-1.3-2.8-2-4.1c-0.7-1.3-1.2-2.6-1.9-4c0.2-0.3,0.4-0.5,0.7-0.8
		c0.8,0.8,0.9,1.9,1.4,2.7c0.5,0.8,0.8,1.7,1.2,2.6C50.4,10.4,50.8,11.3,51.3,12.4z"/>
	<path class="st1" d="M219.8,61.7c-0.2,0.2-0.4,0.4-0.6,0.5c-0.1-0.1-0.3-0.1-0.4-0.2c-0.2-0.3-0.4-0.5-0.5-0.8
		c-0.4-1.4-1.2-2.5-1.8-3.8c-0.5-1-0.9-2.1-1.3-3.2c0.2-0.2,0.3-0.4,0.6-0.7c0.2,0.2,0.6,0.4,0.6,0.5c0,0.8,0.5,1.3,0.8,2
		C218.1,57.9,218.9,59.7,219.8,61.7z"/>
	<path class="st0" d="M352.6,29c0.4,0.2,0.7,0.4,1,0.5c-1.2,2.6-2.4,5.2-3.6,7.7c-0.3,0-0.7,0-1,0c0-0.1-0.1-0.2-0.1-0.3
		c0.9-2,2-4,2.7-6C351.8,30.3,352.2,29.7,352.6,29z"/>
	<path class="st1" d="M184,16.5c0.4,0.3,0.5,0.5,0.8,0.7c-0.3,0.9-0.5,1.8-1,2.6c-0.9,1.6-1.6,3.2-2.3,4.9c-0.1,0.2-0.3,0.4-0.5,0.7
		c-0.3-0.3-0.5-0.4-0.8-0.7c0.4-0.8,0.8-1.6,1.2-2.4C182.3,20.4,183.1,18.6,184,16.5z"/>
	<path class="st1" d="M366.4,29.7c0.2-0.3,0.4-0.5,0.6-0.8c0.3,0.2,0.6,0.3,0.6,0.5c0.1,0.9,0.7,1.7,1.1,2.5
		c0.7,1.6,1.5,3.2,2.3,4.8c0,0.1,0,0.2,0,0.4c-0.1,0.1-0.3,0.3-0.5,0.5c-0.2-0.1-0.3-0.1-0.4-0.2c-0.2-0.3-0.4-0.5-0.5-0.8
		c-0.3-1.4-1.2-2.4-1.7-3.7C367.4,31.8,366.9,30.7,366.4,29.7z"/>
	<path class="st1" d="M196.5,61.6c-0.2,0.2-0.3,0.4-0.5,0.6c-0.2-0.1-0.4-0.1-0.4-0.2c-0.2-0.3-0.4-0.5-0.5-0.8
		c-0.3-1.4-1.2-2.4-1.7-3.7c-0.4-1.1-0.9-2.1-1.4-3.3c0.2-0.2,0.4-0.4,0.6-0.7c0.2,0.2,0.5,0.3,0.5,0.5c0.1,0.9,0.7,1.7,1.1,2.5
		c0.7,1.6,1.5,3.2,2.3,4.8C196.5,61.3,196.5,61.5,196.5,61.6z"/>
	<path class="st1" d="M138.5,61.7c-0.3,0.3-0.4,0.4-0.6,0.6c-0.3-0.1-0.4-0.1-0.4-0.2c-0.2-0.3-0.4-0.5-0.5-0.8
		c-0.5-1.4-1.2-2.6-1.8-3.9c-0.5-1-0.9-2.1-1.3-3.3c0.3-0.1,0.5-0.2,0.8-0.3c0.6,0,0.4,0.7,0.6,1.1c0.3,0.4,0.5,0.9,0.7,1.3
		c0.2,0.4,0.4,0.9,0.6,1.4s0.4,0.9,0.6,1.4c0.2,0.5,0.4,0.9,0.6,1.4C138,60.7,138.2,61.1,138.5,61.7z"/>
	<path class="st1" d="M271.2,102.7c0.4,0.3,0.5,0.5,0.8,0.7c-0.3,0.9-0.5,1.8-1,2.6c-0.9,1.6-1.6,3.2-2.3,4.9
		c-0.1,0.2-0.3,0.4-0.5,0.7c-0.3-0.3-0.5-0.4-0.8-0.7c0.4-0.8,0.8-1.6,1.2-2.4C269.5,106.6,270.3,104.7,271.2,102.7z"/>
	<path class="st1" d="M138.4,24.7c-0.2,0.3-0.4,0.4-0.5,0.6c-0.2-0.1-0.3-0.1-0.4-0.2c-0.2-0.3-0.4-0.5-0.5-0.8
		c-0.3-1.3-1.2-2.4-1.7-3.7c-0.4-1.1-0.9-2.1-1.4-3.3c0.2-0.2,0.4-0.4,0.6-0.7c0.2,0.1,0.4,0.2,0.5,0.3c0.5,1.6,1.5,2.9,2,4.4
		c0.3,0.9,0.9,1.8,1.3,2.7C138.3,24.2,138.3,24.4,138.4,24.7z"/>
	<path class="st1" d="M162.9,66.5c0.2-0.3,0.4-0.4,0.6-0.7c0.2,0.1,0.4,0.2,0.5,0.4c0.5,1.6,1.5,2.9,2,4.4c0.3,0.9,0.9,1.8,1.3,2.7
		c0.1,0.2,0.1,0.3,0.2,0.6c-0.2,0.2-0.4,0.4-0.6,0.6c-0.2-0.1-0.3-0.1-0.4-0.2c-0.2-0.3-0.4-0.5-0.5-0.8c-0.3-1.3-1.2-2.4-1.7-3.7
		C163.9,68.7,163.4,67.7,162.9,66.5z"/>
	<path class="st1" d="M97.7,54.2c-0.8,1.8-1.5,3.3-2.3,4.9c-0.4,0.8-0.7,1.6-1.1,2.4c-0.1,0.2-0.3,0.4-0.5,0.7
		c-0.3-0.3-0.5-0.4-0.8-0.7c0.4-0.8,0.8-1.6,1.2-2.4c0.9-1.8,1.7-3.7,2.6-5.6C97.1,53.8,97.4,53.9,97.7,54.2z"/>
	<path class="st1" d="M365,73.9c-0.2,0.3-0.3,0.5-0.5,0.7c-0.2-0.1-0.4-0.2-0.4-0.3c-0.2-0.3-0.4-0.5-0.5-0.8
		c-0.3-1.4-1.2-2.4-1.7-3.7c-0.4-1.1-0.9-2.1-1.4-3.3c0.2-0.2,0.4-0.4,0.6-0.7c0.2,0.2,0.5,0.3,0.5,0.5c0.1,0.9,0.7,1.7,1.1,2.5
		c0.7,1.6,1.5,3.2,2.3,4.8C365,73.7,365,73.8,365,73.9z"/>
	<path class="st0" d="M117.4,111.1c-0.3,0-0.7,0-1,0c0-0.2-0.1-0.3,0-0.4c0.9-1.9,1.9-3.9,2.7-5.9c0.2-0.6,0.6-1.2,1-1.9
		c0.2,0.1,0.3,0.2,0.5,0.3c0.2,0.1,0.3,0.1,0.5,0.2C119.8,106,118.6,108.5,117.4,111.1z"/>
	<path class="st1" d="M103.5,110.9c-0.2,0.2-0.4,0.4-0.6,0.5c-0.1-0.1-0.3-0.1-0.4-0.2c-0.2-0.3-0.4-0.5-0.5-0.8
		c-0.4-1.4-1.2-2.5-1.8-3.8c-0.5-1-0.9-2.1-1.3-3.2c0.2-0.2,0.3-0.4,0.6-0.7c0.2,0.2,0.6,0.4,0.6,0.5c0,0.8,0.5,1.3,0.8,2
		C101.8,107.1,102.6,108.9,103.5,110.9z"/>
	<path class="st1" d="M189.9,74.6c-0.2-0.4-0.5-0.7-0.6-1c-0.6-1.2-1.1-2.4-1.6-3.6c-0.4-1-0.9-2-1.4-2.9c-0.3-0.6,0-0.9,0.5-1.2
		c0.2,0.1,0.4,0.3,0.5,0.5c0.2,1.2,1,2.1,1.4,3.2c0.5,1.3,1.1,2.6,1.8,3.8C190.8,73.9,190.5,74.2,189.9,74.6z"/>
	<path class="st1" d="M38.8,102.5c0.3,0.4,0.5,0.6,0.7,0.9c-0.3,0.7-0.5,1.4-0.8,2.1c-0.8,1.8-1.7,3.5-2.5,5.2
		c-0.1,0.3-0.3,0.5-0.6,1c-0.3-0.4-0.5-0.6-0.7-0.8C36.2,108.2,37.4,105.5,38.8,102.5z"/>
	<path class="st0" d="M236.3,65.8c0.2,0.2,0.3,0.3,0.5,0.4c0.1,0.1,0.3,0,0.4,0.1c0,0.2,0,0.3,0,0.4c-1.2,2.4-2.4,4.9-3.6,7.4
		c-0.3,0-0.6,0-1,0c0-0.1-0.1-0.2-0.1-0.3c0.9-2,1.9-4,2.7-6C235.6,67.2,235.9,66.6,236.3,65.8z"/>
	<path class="st1" d="M69.8,54.1c0.2-0.2,0.4-0.4,0.6-0.6c0.3,0.2,0.4,0.2,0.5,0.3c1.2,2.6,2.4,5.1,3.6,7.8
		c-0.2,0.2-0.4,0.4-0.5,0.5c-0.3-0.1-0.4-0.1-0.4-0.2c-0.2-0.3-0.4-0.5-0.5-0.8c-0.5-1.4-1.2-2.6-1.8-3.9
		C70.7,56.4,70.3,55.3,69.8,54.1z"/>
	<path class="st0" d="M3.8,53.6c0.4,0.2,0.7,0.3,1.1,0.5c-0.2,0.5-0.5,1-0.7,1.6c-1,2-1.9,4.1-2.9,6.1c-0.3,0-0.7,0-1.2,0
		C1.3,59,2.5,56.3,3.8,53.6z"/>
	<path class="st1" d="M387.5,90.4c0.3,0.3,0.5,0.5,0.7,0.7c-0.2,0.7-0.4,1.4-0.7,2.1c-0.9,1.8-1.8,3.5-2.6,5.4
		c-0.1,0.2-0.3,0.4-0.5,0.7c-0.3-0.2-0.5-0.4-0.7-0.7c0.4-1,0.8-1.9,1.3-2.8C385.8,94,386.6,92.3,387.5,90.4z"/>
	<path class="st1" d="M336.1,86.3c-0.2,0.2-0.4,0.4-0.5,0.5c-0.3-0.1-0.4-0.1-0.4-0.2c-0.2-0.3-0.4-0.5-0.5-0.8
		c-0.5-1.4-1.2-2.6-1.8-3.9c-0.5-1-0.9-2.1-1.3-3.3c0.2-0.2,0.4-0.4,0.6-0.6c0.3,0.2,0.4,0.2,0.5,0.3
		C333.6,81,334.8,83.6,336.1,86.3z"/>
	<path class="st1" d="M365.1,98.6c-0.2,0.2-0.4,0.4-0.6,0.5c-0.1-0.1-0.3-0.1-0.4-0.2c-0.2-0.3-0.4-0.5-0.5-0.8
		c-0.4-1.4-1.2-2.5-1.8-3.8c-0.5-1-0.9-2.1-1.3-3.2c0.2-0.2,0.3-0.4,0.6-0.7c0.2,0.2,0.6,0.4,0.6,0.5c0,0.8,0.5,1.3,0.8,2
		C363.4,94.8,364.2,96.6,365.1,98.6z"/>
	<path class="st1" d="M337.3,66.5c0.2-0.2,0.4-0.3,0.6-0.6c0.2,0.2,0.6,0.3,0.6,0.5c0,0.8,0.5,1.3,0.8,2c0.8,1.8,1.6,3.6,2.5,5.5
		c-0.2,0.2-0.4,0.4-0.5,0.6c-0.2-0.1-0.3-0.1-0.4-0.2c-0.2-0.3-0.4-0.5-0.5-0.8c-0.4-1.4-1.2-2.5-1.8-3.8
		C338.2,68.7,337.8,67.7,337.3,66.5z"/>
	<path class="st1" d="M341.9,98.6c-0.2,0.2-0.4,0.4-0.5,0.5c-0.3-0.1-0.4-0.1-0.4-0.2c-0.2-0.3-0.4-0.5-0.5-0.8
		c-0.5-1.4-1.2-2.6-1.8-3.9c-0.5-1-0.9-2.1-1.3-3.3c0.2-0.2,0.4-0.4,0.6-0.6c0.3,0.2,0.4,0.2,0.5,0.3
		C339.5,93.4,340.7,95.9,341.9,98.6z"/>
	<path class="st1" d="M370.2,86.9c-0.2-0.4-0.5-0.7-0.6-1c-0.6-1.2-1.1-2.4-1.6-3.6c-0.4-1-0.9-2-1.4-2.9c-0.3-0.6,0-0.9,0.5-1.2
		c0.2,0.1,0.4,0.3,0.5,0.5c0.2,1.2,1,2.1,1.4,3.2c0.5,1.3,1.1,2.6,1.8,3.8C371.1,86.2,370.8,86.5,370.2,86.9z"/>
	<path class="st1" d="M6.5,50.1c-0.3-0.4-0.4-0.5-0.6-0.8c0-0.7,0.5-1.3,0.9-1.9c0.9-2,1.8-3.9,2.7-5.9c0-0.1,0.1-0.1,0.3-0.2
		c0.2,0.2,0.4,0.3,0.6,0.6c-0.3,0.7-0.5,1.5-0.8,2.1c-0.8,1.8-1.6,3.5-2.5,5.2C7,49.5,6.8,49.7,6.5,50.1z"/>
	<path class="st0" d="M30.2,98.8c-0.3,0-0.7,0-1.1-0.1c1.3-2.8,2.5-5.5,3.8-8.2c0.4,0.2,0.7,0.3,1.1,0.5c-0.1,0.2-0.3,0.4-0.4,0.6
		c-1,2.1-2,4.2-2.9,6.4C30.5,98.3,30.3,98.5,30.2,98.8z"/>
	<path class="st0" d="M59.3,98.7c-0.4,0-0.8,0-1.2,0c1.3-2.8,2.5-5.5,3.8-8.2c0.4,0.2,0.7,0.3,1.1,0.5c-0.3,0.5-0.5,1.1-0.8,1.6
		C61.2,94.7,60.3,96.7,59.3,98.7z"/>
	<path class="st1" d="M109.4,98.6c-0.3,0.1-0.6,0.2-1,0.4c0.2,0.1,0.1,0.1,0,0c-0.2-0.3-0.4-0.5-0.5-0.8c-0.5-1.4-1.2-2.6-1.8-3.9
		c-0.5-1-0.9-2.1-1.3-3.3c0.2-0.2,0.4-0.4,0.6-0.6c0.3,0.2,0.4,0.2,0.5,0.3C107,93.4,108.2,95.9,109.4,98.6z"/>
	<path class="st0" d="M91,41.3c0.4,0.2,0.7,0.4,1,0.5c-1.2,2.6-2.4,5.2-3.6,7.7c-0.4,0-0.7,0-1,0c0-0.1-0.1-0.2-0.1-0.3
		c0.9-2,2-4,2.7-6C90.2,42.6,90.6,42,91,41.3z"/>
	<path class="st1" d="M248.9,73.9c-0.3,0.3-0.5,0.4-0.8,0.7c-0.9-1.3-1.3-2.8-2-4.1c-0.7-1.3-1.2-2.6-1.9-4c0.2-0.3,0.4-0.5,0.7-0.8
		c0.8,0.8,0.9,1.9,1.4,2.7c0.5,0.8,0.8,1.7,1.2,2.6C248,72,248.4,72.9,248.9,73.9z"/>
	<path class="st1" d="M271.3,4.2c0.3,0.3,0.5,0.5,0.7,0.7c-0.2,0.7-0.4,1.4-0.7,2.1c-0.9,1.8-1.7,3.6-2.6,5.4
		c-0.1,0.2-0.3,0.4-0.5,0.7c-0.3-0.2-0.5-0.4-0.7-0.7c0.3-0.8,0.6-1.5,1-2.2C269.3,8.2,270.2,6.3,271.3,4.2z"/>
	<path class="st1" d="M132.6,49.4c-0.2,0.2-0.4,0.3-0.7,0.5c-0.1,0-0.2-0.1-0.3-0.2c-0.2-0.3-0.4-0.5-0.5-0.8
		c-0.4-1.4-1.2-2.5-1.8-3.8c-0.5-1-0.9-2.1-1.3-3.2c0.2-0.2,0.3-0.4,0.6-0.7c0.2,0.2,0.6,0.4,0.6,0.5c0,0.8,0.5,1.3,0.8,2
		C130.9,45.6,131.7,47.4,132.6,49.4z"/>
	<path class="st1" d="M358.5,115.1c0.3,0.3,0.5,0.5,0.7,0.7c-0.2,0.7-0.4,1.4-0.7,2.1c-0.9,1.8-1.7,3.6-2.6,5.4
		c-0.1,0.2-0.3,0.4-0.5,0.7c-0.3-0.2-0.5-0.4-0.7-0.7c0.3-0.8,0.6-1.5,1-2.2C356.5,119.1,357.4,117.2,358.5,115.1z"/>
	<path class="st1" d="M277.9,12.4c-0.2,0.2-0.4,0.4-0.5,0.6c-0.2-0.1-0.3-0.1-0.4-0.2c-0.2-0.3-0.4-0.5-0.5-0.8
		c-0.3-1.3-1.2-2.4-1.7-3.7c-0.4-1.1-0.9-2.1-1.4-3.3c0.2-0.2,0.4-0.4,0.6-0.7c0.2,0.1,0.4,0.2,0.5,0.3c0.5,1.6,1.5,2.9,2,4.4
		c0.3,0.9,0.9,1.8,1.3,2.7C277.7,11.9,277.8,12.1,277.9,12.4z"/>
	<path class="st1" d="M186.6,41.3c1,0.1,0.7,0.9,1,1.2c0.3,0.4,0.5,0.9,0.7,1.3c0.2,0.4,0.4,0.9,0.6,1.4c0.2,0.5,0.4,0.9,0.6,1.4
		c0.2,0.5,0.4,0.9,0.6,1.4c0.2,0.4,0.5,0.9,0.7,1.3c-0.2,0.3-0.4,0.5-0.7,0.8c-0.3-0.3-0.6-0.4-0.6-0.6c-0.9-2.6-2.5-4.9-3.3-7.6
		C186.3,41.6,186.5,41.4,186.6,41.3z"/>
	<path class="st1" d="M125.9,90.5c0.3,0.2,0.5,0.4,0.8,0.6c-0.3,0.7-0.5,1.5-0.8,2.2c-0.8,1.8-1.7,3.5-2.5,5.2
		c-0.1,0.2-0.3,0.5-0.4,0.7c-0.9-0.5-0.9-0.5-0.5-1.3C123.6,95.4,124.7,93,125.9,90.5z"/>
	<path class="st1" d="M279.9,65.8c0.8,0.8,0.9,1.9,1.4,2.7c0.5,0.8,0.8,1.7,1.2,2.6c0.4,0.9,0.8,1.8,1.3,2.8
		c-0.2,0.2-0.4,0.5-0.7,0.8c-0.9-1.3-1.3-2.8-2-4.1c-0.7-1.3-1.2-2.6-1.9-4C279.4,66.3,279.6,66.1,279.9,65.8z"/>
	<path class="st1" d="M297.2,74.6c-0.3-0.3-0.5-0.4-0.8-0.7c0.4-0.8,0.8-1.6,1.2-2.4c0.9-1.8,1.7-3.7,2.6-5.6
		c0.3,0.2,0.6,0.4,0.8,0.6c-0.3,0.9-0.5,1.8-1,2.6c-0.9,1.6-1.6,3.2-2.3,4.9C297.6,74.1,297.4,74.3,297.2,74.6z"/>
	<path class="st1" d="M190.7,98.6c-0.2,0.3-0.4,0.5-0.6,0.7c-0.3-0.2-0.4-0.3-0.5-0.4c-0.1-0.2-0.2-0.4-0.3-0.6
		c-1.1-2.4-2.2-4.7-3.3-7.2c0.3-0.2,0.6-0.3,0.9-0.4c-0.1-0.1,0.1,0,0.1,0.1C188.3,93.4,189.5,95.9,190.7,98.6z"/>
	<path class="st0" d="M207.2,90.5c0.4,0.2,0.7,0.3,1.1,0.5c-0.3,0.5-0.5,1.1-0.8,1.6c-1,2-1.9,4.1-2.9,6.1c-0.4,0-0.7,0-1.2,0
		C204.7,96,206,93.3,207.2,90.5z"/>
	<path class="st1" d="M9.9,65.8c0.1,0.3,0.2,0.6,0.2,0.9c0.1-0.1,0.2-0.1,0.3-0.2c-0.2,0.7-0.4,1.4-0.7,2C8.8,70.3,8,72,7.1,73.8
		C7,74,6.8,74.3,6.5,74.8c-0.2-0.5-0.2-0.8-0.4-1.4c1-2.2,2.3-4.9,3.5-7.5C9.7,65.9,9.8,65.9,9.9,65.8z"/>
	<path class="st1" d="M393.4,50c-0.2-0.4-0.5-0.7-0.6-1c-0.6-1.2-1.1-2.4-1.6-3.6c-0.4-1-0.9-2-1.4-2.9c-0.2-0.5-0.2-0.5,0.5-1.2
		c0.2,0.2,0.5,0.4,0.5,0.6c0,0.6,0.4,1,0.6,1.5c0.8,1.8,1.6,3.5,2.4,5.3C394.1,49.2,394.2,49.2,393.4,50z"/>
	<path class="st1" d="M361.2,41.2c0.8,0.8,0.9,1.9,1.4,2.7c0.5,0.8,0.8,1.7,1.2,2.6c0.4,0.9,0.8,1.8,1.3,2.8
		c-0.2,0.2-0.4,0.5-0.7,0.8c-0.9-1.3-1.3-2.8-2-4.1c-0.7-1.3-1.2-2.6-1.9-4C360.7,41.7,360.9,41.5,361.2,41.2z"/>
	<path class="st0" d="M277.3,90.4c0.2,0.3,0.4,0.5,0.6,0.8c-1.3,2.7-2.5,5.3-3.8,8.1c-0.3-0.2-0.5-0.4-0.8-0.6c1-2.7,2.4-5,3.4-7.6
		C276.7,90.8,277,90.7,277.3,90.4z"/>
	<path class="st0" d="M372.3,41.8c0.2-0.2,0.4-0.3,0.7-0.6c1.3,2.8,2.5,5.5,3.8,8.3c-0.4,0-0.8,0.1-1.2,0.1
		c-1.1-2.4-2.2-4.8-3.3-7.1C372.3,42.3,372.3,42,372.3,41.8z"/>
	<path class="st0" d="M335.5,41.2c0.1,0.3,0.2,0.5,0.4,1c-1.1,2.3-2.3,5-3.6,7.7c-0.3-0.2-0.5-0.4-0.8-0.6c1.2-2.8,2.4-5.4,3.7-8
		C335.2,41.3,335.4,41.2,335.5,41.2z"/>
	<path class="st2" d="M272.1,73.9c-0.3,0.3-0.5,0.4-0.8,0.7c-1.3-2.8-2.5-5.5-3.8-8.1c0.2-0.2,0.4-0.4,0.5-0.6
		c0.2,0.1,0.4,0.1,0.4,0.2c0.4,0.7,0.9,1.3,1.1,2c0.3,0.9,0.8,1.7,1.2,2.6C271.1,71.7,271.6,72.8,272.1,73.9z"/>
	<path class="st0" d="M285.1,41.7c0.2-0.2,0.4-0.3,0.7-0.5c1.3,2.8,2.5,5.5,3.8,8.3c-0.5,0-0.8,0-1.2,0.1c-1.1-2.4-2.2-4.8-3.3-7.2
		C285.1,42.2,285.1,42,285.1,41.7z"/>
	<path class="st0" d="M250.9,74.7c-0.4-0.3-0.5-0.5-0.8-0.8c0.1-0.3,0.3-0.5,0.4-0.8c0.7-1.7,1.4-3.3,2.3-4.9
		c0.3-0.6,0.5-1.2,0.7-1.7c0.1-0.2,0.3-0.4,0.5-0.7c0.3,0.3,0.5,0.4,0.8,0.7c-0.4,0.8-0.8,1.6-1.2,2.4
		C252.7,70.8,251.8,72.6,250.9,74.7z"/>
	<path class="st0" d="M221.6,99.2c-0.1-0.3-0.2-0.6-0.4-1.1c1-2.4,2.2-5,3.6-7.7c0.4,0.3,0.6,0.5,0.9,0.7c-1.3,2.7-2.5,5.4-3.8,8
		C221.8,99.2,221.7,99.2,221.6,99.2z"/>
	<path class="st2" d="M267.5,41.9c0.2-0.2,0.4-0.4,0.5-0.6c0.2,0.1,0.4,0.1,0.4,0.2c0.4,0.7,0.9,1.3,1.1,2c0.3,0.9,0.8,1.7,1.2,2.6
		c0.5,1,0.9,2.1,1.4,3.2c-0.2,0.2-0.5,0.4-0.8,0.8C269.9,47.2,268.7,44.5,267.5,41.9z"/>
	<path class="st0" d="M192,98.6c1-2.6,2.4-5,3.3-7.6c0.1-0.2,0.3-0.3,0.7-0.7c0.1,0.4,0.2,0.7,0.4,1.2c-1.1,2.2-2.3,4.9-3.5,7.5
		c-0.1,0-0.3,0-0.3,0C192.3,98.9,192.2,98.8,192,98.6z"/>
	<path class="st0" d="M254,41.2c0.3,0.3,0.5,0.5,0.8,0.7c-0.4,0.8-0.8,1.6-1.2,2.4c-0.9,1.8-1.7,3.7-2.6,5.6
		c-0.3-0.2-0.6-0.4-0.9-0.6c0.1-0.3,0.3-0.5,0.4-0.8c0.7-1.7,1.4-3.3,2.3-4.9c0.3-0.6,0.5-1.2,0.7-1.7
		C253.6,41.7,253.8,41.5,254,41.2z"/>
	<path class="st0" d="M231.5,49.5c-0.5,0-0.8,0-1.2,0c-1-2.1-1.9-4.3-3-6.5c-0.2-0.4-0.2-0.8-0.3-1.2c0.2-0.2,0.4-0.3,0.7-0.5
		C229,44,230.3,46.7,231.5,49.5z"/>
	<path class="st2" d="M209.5,42c0.2-0.4,0.3-0.6,0.4-0.7c0.2,0.1,0.3,0.1,0.3,0.1c0.4,0.7,1,1.4,1.2,2.1c0.2,0.9,0.8,1.6,1.1,2.5
		c0.4,1.1,0.9,2.1,1.5,3.3c-0.2,0.2-0.4,0.4-0.5,0.5c-0.3-0.1-0.4-0.1-0.4-0.2c-1.1-2-1.8-4.2-3-6.2C209.7,43.1,209.6,42.5,209.5,42
		z"/>
	<path class="st0" d="M201.3,49.5c-1.1-2.4-2.2-4.7-3.3-7c-0.1-0.2,0-0.5,0.2-0.6c0.1-0.2,0.2-0.5,0.4-1c1.5,3,2.7,5.7,3.9,8.6
		C202,49.5,201.7,49.5,201.3,49.5z"/>
	<path class="st0" d="M99.7,50c-0.3-0.3-0.5-0.4-0.8-0.7c0.1-0.3,0.3-0.6,0.4-0.9c1-2.2,2-4.3,2.9-6.5c0.1-0.2,0.3-0.5,0.5-0.8
		c0.3,0.2,0.5,0.4,0.8,0.6c-0.2,0.5-0.5,1-0.7,1.5C101.8,45.5,100.8,47.7,99.7,50z"/>
	<path class="st0" d="M215.2,74c0.3-1.1,3.2-7.6,3.8-8.1c0.8,0.5,0.8,0.5,0.5,1.2c-1.1,2.4-2.3,4.9-3.5,7.4
		C215.7,74.4,215.5,74.2,215.2,74z"/>
	<path class="st2" d="M213.9,73.9c-0.3,0.3-0.5,0.4-0.8,0.7c-1.3-2.8-2.5-5.5-3.7-8c0.2-0.3,0.4-0.5,0.5-0.7
		c0.2,0.1,0.3,0.1,0.4,0.2c0.4,0.7,0.9,1.3,1.1,2c0.2,0.9,0.7,1.6,1.1,2.5C212.9,71.7,213.4,72.8,213.9,73.9z"/>
	<path class="st0" d="M197.9,66.4c0.3-0.2,0.5-0.4,0.8-0.6c1.3,2.8,2.5,5.5,3.8,8.3c-0.4,0-0.8,0-1.2,0c-0.5-1.2-1.2-2.5-1.7-3.8
		C199,69,198,67.9,197.9,66.4z"/>
	<path class="st2" d="M93.2,91.3c0.2-0.4,0.3-0.6,0.3-0.8c0.2,0.1,0.4,0.1,0.4,0.1c0.4,0.7,1,1.4,1.2,2.1c0.2,0.9,0.8,1.6,1.1,2.5
		c0.4,1.1,0.9,2.1,1.5,3.4c-0.3,0.1-0.6,0.2-1,0.4c0.2,0.1,0,0.1,0,0c-1.1-2-1.8-4.2-3-6.2C93.5,92.3,93.4,91.7,93.2,91.3z"/>
	<path class="st0" d="M108.8,4.3c0.1,0.3,0.2,0.6,0.4,1c-1.1,2.3-2.3,5-3.6,7.7c-0.3-0.2-0.5-0.4-0.8-0.6c1.2-2.8,2.4-5.4,3.7-8
		C108.6,4.3,108.7,4.3,108.8,4.3z"/>
	<path class="st0" d="M41.6,99.3c-0.3-0.3-0.5-0.4-0.8-0.7c0.1-0.3,0.3-0.6,0.4-0.9c1-2.2,2-4.3,2.9-6.5c0.1-0.2,0.3-0.5,0.5-0.8
		c0.3,0.2,0.5,0.4,0.8,0.6c-0.2,0.5-0.5,1-0.7,1.4C43.7,94.8,42.7,96.9,41.6,99.3z"/>
	<path class="st0" d="M21.5,41.2c0.3,0.3,0.5,0.4,0.8,0.7c-0.4,0.8-0.8,1.6-1.2,2.4c-0.9,1.8-1.7,3.7-2.6,5.6
		c-0.3-0.2-0.6-0.4-0.9-0.6c0.1-0.3,0.3-0.5,0.4-0.8c0.7-1.7,1.4-3.3,2.3-4.9c0.3-0.6,0.5-1.2,0.7-1.7C21,41.7,21.3,41.5,21.5,41.2z
		"/>
	<path class="st0" d="M134.7,74.6c-0.3-0.3-0.5-0.4-0.8-0.7c0.1-0.3,0.3-0.6,0.4-0.9c1-2.2,2-4.3,2.9-6.5c0.1-0.2,0.3-0.5,0.5-0.8
		c0.3,0.2,0.5,0.4,0.8,0.6c-0.2,0.5-0.5,1-0.7,1.5C136.8,70.1,135.7,72.3,134.7,74.6z"/>
	<path class="st0" d="M115.3,12.6c-0.6,0-0.9,0-1.2,0c-1.1-2.4-2.2-4.7-3.3-7.1c-0.1-0.2,0-0.4,0-0.6c0.2-0.2,0.4-0.3,0.7-0.6
		C112.7,7.1,114,9.7,115.3,12.6z"/>
	<path class="st0" d="M111.5,65.9c1.3,2.8,2.5,5.5,3.8,8.3c-0.5,0-0.8,0-1.2,0c-0.6-1.2-1.2-2.5-1.8-3.9c-0.5-1.3-1.5-2.4-1.6-3.9
		C111,66.2,111.2,66.1,111.5,65.9z"/>
	<path class="st2" d="M388.3,86.3c-0.3,0.3-0.5,0.4-0.8,0.7c-1.3-2.8-2.5-5.5-3.8-8.1c0.2-0.2,0.4-0.4,0.5-0.6
		c0.2,0.1,0.4,0.1,0.4,0.2c0.4,0.7,0.9,1.3,1.1,2c0.3,0.9,0.8,1.7,1.2,2.6C387.4,84.1,387.8,85.1,388.3,86.3z"/>
	<path class="st0" d="M306.2,90.5c0.6,0.4,0.9,0.7,0.6,1.3c-1.2,2.5-2.4,4.9-3.6,7.5c-0.3-0.2-0.5-0.4-0.8-0.6
		c0.1-0.3,0.3-0.6,0.4-0.9c0.8-2.2,2-4.3,2.9-6.5C305.8,91,306,90.8,306.2,90.5z"/>
	<path class="st2" d="M354.6,78.8c0.3-0.3,0.4-0.4,0.7-0.6c1.1,1.2,1.4,2.7,2,4c0.6,1.3,1.2,2.6,1.9,3.9c-0.3,0.3-0.5,0.5-0.8,0.9
		C357.1,84.2,355.9,81.5,354.6,78.8z"/>
	<path class="st0" d="M343.2,78.7c0.3-0.2,0.5-0.4,0.8-0.5c1.3,2.8,2.5,5.5,3.8,8.3c-0.4,0-0.8,0-1.2,0c-0.5-1.2-1.2-2.5-1.7-3.8
		C344.3,81.3,343.3,80.2,343.2,78.7z"/>
	<path class="st2" d="M97.7,74c-0.3,0.1-0.6,0.2-1,0.4c0.2,0.1,0.1,0.1,0,0c-1.1-2-1.8-4.2-3-6.2c-0.3-0.5-0.4-1.1-0.7-1.8
		c0.1-0.1,0.3-0.3,0.4-0.4c0.3,0.1,0.4,0.1,0.4,0.2c0.4,0.7,1,1.4,1.2,2.1c0.2,0.9,0.8,1.6,1.1,2.5C96.7,71.7,97.2,72.8,97.7,74z"/>
	<path class="st0" d="M86.2,74.1c-0.5,0-0.8,0-1.2,0c-0.3-0.5-0.5-1.1-0.8-1.7c-0.8-1.7-1.6-3.3-2.4-5c-0.1-0.3-0.2-0.7,0-0.9
		c0.1-0.2,0.2-0.5,0.3-1C83.7,68.6,84.9,71.3,86.2,74.1z"/>
	<path class="st0" d="M73.9,65.7c0.1,0.4,0.3,0.7,0.4,1.1c-1.1,2.3-2.3,5-3.6,7.7c-0.3-0.2-0.5-0.4-0.8-0.6
		C70.2,72.9,73.1,66.6,73.9,65.7z"/>
	<path class="st0" d="M190.1,4.1c0.1,0.4,0.2,0.7,0.3,1.3c-1,2.2-2.3,4.8-3.5,7.4c-0.1,0-0.3,0-0.3,0c-0.2-0.1-0.3-0.3-0.5-0.5
		c1-2.6,2.4-5,3.3-7.6C189.6,4.6,189.8,4.5,190.1,4.1z"/>
	<path class="st0" d="M370.2,90.3c0.3,0.4,0.5,0.6,0.7,0.7c0,0.8-0.5,1.4-0.9,2c-0.9,2-1.8,3.9-2.7,5.9c0,0.1-0.1,0.1-0.3,0.2
		c-0.2-0.2-0.4-0.3-0.6-0.6c0.1-0.3,0.2-0.5,0.3-0.8c0.7-2,1.8-3.7,2.5-5.7C369.4,91.6,369.8,91.1,370.2,90.3z"/>
	<path class="st0" d="M312.2,78.1c0.3,0.3,0.5,0.5,0.7,0.7c-1.3,2.8-2.6,5.4-3.8,8.2c-0.3-0.2-0.5-0.4-0.8-0.6
		C308.6,85.3,311.4,78.9,312.2,78.1z"/>
	<path class="st0" d="M44.7,65.7c0.3,0.4,0.5,0.6,0.7,0.7c0,0.8-0.6,1.4-0.9,2c-0.9,2-1.8,3.9-2.7,5.9c0,0.1-0.1,0.1-0.3,0.2
		c-0.2-0.2-0.4-0.3-0.6-0.6c0.1-0.3,0.2-0.5,0.3-0.8c0.7-2,1.9-3.7,2.5-5.7C43.8,66.9,44.2,66.4,44.7,65.7z"/>
	<path class="st0" d="M12.5,62.3c-0.3-0.3-0.5-0.5-0.8-0.7c0.1-0.3,0.2-0.5,0.3-0.8c0.7-2,1.8-3.7,2.5-5.7c0.2-0.6,0.6-1.1,1-1.7
		c0.3,0.3,0.5,0.5,0.8,0.7c-0.3,0.8-0.6,1.5-1,2.2C14.4,58.3,13.5,60.2,12.5,62.3z"/>
	<path class="st2" d="M209.3,4.9c0.3-0.3,0.4-0.4,0.7-0.7c1.1,1.2,1.4,2.7,2,4c0.6,1.3,1.2,2.6,1.9,3.9c-0.3,0.3-0.5,0.5-0.8,0.9
		C211.7,10.3,210.6,7.6,209.3,4.9z"/>
	<path class="st0" d="M52.8,54.2c0.1-0.2,0.2-0.4,0.3-0.6c0.2,0.1,0.3,0.1,0.3,0.1c1,1.8,1.6,3.8,2.7,5.6c0.4,0.7,0.6,1.6,0.9,2.4
		c-0.4,0-0.7,0-1.1,0c-0.6-1.2-1.2-2.5-1.8-3.8C53.7,56.7,52.7,55.6,52.8,54.2z"/>
	<path class="st2" d="M354.7,5.1c0.2-0.4,0.3-0.6,0.4-0.8c0.2,0.1,0.4,0.2,0.4,0.3c0.4,0.7,0.9,1.3,1.1,2c0.2,0.9,0.7,1.6,1.1,2.5
		c0.4,1.1,0.9,2.1,1.5,3.3c-0.3,0.2-0.5,0.4-0.8,0.7C357.1,10.3,355.9,7.7,354.7,5.1z"/>
	<path class="st0" d="M134.7,111.6c-0.3-0.3-0.5-0.4-0.8-0.7c0.1-0.3,0.3-0.6,0.4-0.9c1-2.2,2-4.3,2.9-6.5c0.1-0.2,0.3-0.4,0.5-0.8
		c0.3,0.2,0.5,0.4,0.8,0.6c-0.2,0.5-0.5,1-0.7,1.5C136.8,107.1,135.7,109.3,134.7,111.6z"/>
	<path class="st2" d="M184.9,111c-0.3,0.1-0.6,0.2-1,0.4c0.2,0.1,0.1,0.1,0,0c-1.1-2-1.8-4.2-3-6.2c-0.3-0.5-0.4-1.1-0.7-1.8
		c0.1-0.1,0.3-0.3,0.4-0.4c0.3,0.1,0.4,0.1,0.4,0.2c0.4,0.7,1,1.4,1.2,2.1c0.2,0.9,0.8,1.6,1.1,2.5
		C183.9,108.7,184.4,109.7,184.9,111z"/>
	<path class="st0" d="M216,111.5c-0.3-0.2-0.5-0.4-0.8-0.6c0.1-0.3,0.3-0.6,0.4-0.9c0.8-2.2,2-4.3,2.9-6.5c0.1-0.2,0.3-0.5,0.4-0.7
		c0.9,0.5,0.9,0.5,0.5,1.3C218.3,106.6,217.2,109,216,111.5z"/>
	<path class="st2" d="M122.3,54.4c0.2-0.4,0.3-0.6,0.3-0.8c0.2,0.1,0.4,0.1,0.4,0.1c0.4,0.7,1,1.4,1.2,2.1c0.2,0.9,0.8,1.6,1.1,2.5
		c0.4,1.1,0.9,2.1,1.5,3.4c-0.3,0.1-0.6,0.2-1,0.4c0.2,0.1,0.1,0.1,0,0c-1.1-2-1.8-4.2-3-6.2C122.5,55.4,122.4,54.8,122.3,54.4z"/>
	<path class="st0" d="M375.7,12.6c-1.1-2.4-2.2-4.7-3.3-7c-0.1-0.2,0-0.5,0.2-0.6c0.1-0.2,0.2-0.4,0.4-0.8c1.4,2.9,2.6,5.6,3.9,8.4
		C376.4,12.6,376,12.6,375.7,12.6z"/>
	<path class="st2" d="M151.2,54.2c0.3-0.3,0.4-0.4,0.7-0.6c1.1,1.2,1.4,2.7,2,4c0.6,1.3,1.2,2.6,1.9,3.9c-0.3,0.3-0.5,0.5-0.8,0.9
		C153.6,59.6,152.5,56.9,151.2,54.2z"/>
	<path class="st0" d="M163.5,62.3c-0.1-0.3-0.2-0.6-0.4-1.1c1-2.4,2.2-5,3.6-7.7c0.4,0.3,0.6,0.5,0.9,0.7c-1.3,2.7-2.5,5.4-3.8,8
		C163.7,62.2,163.6,62.2,163.5,62.3z"/>
	<path class="st0" d="M173.4,61.8c-0.5,0-0.9,0-1.2,0c-1.1-2.3-2.2-4.7-3.3-7.1c-0.1-0.2,0-0.4,0-0.7c0.2-0.1,0.4-0.3,0.7-0.6
		C170.9,56.3,172.1,59,173.4,61.8z"/>
	<path class="st2" d="M180.3,54.4c0.2-0.4,0.4-0.6,0.5-0.8c0.2,0.1,0.3,0.2,0.4,0.3c0.4,0.7,0.9,1.3,1.1,2c0.2,0.9,0.7,1.6,1.1,2.5
		c0.4,1.1,0.9,2.1,1.5,3.3c-0.3,0.2-0.5,0.4-0.8,0.7C182.8,59.6,181.5,56.9,180.3,54.4z"/>
	<path class="st2" d="M383.9,29.9c0.2-0.5,0.3-0.7,0.4-1.1c0.3,0.3,0.6,0.5,0.7,0.7c1.1,2.5,2.3,5,3.4,7.5c-0.2,0.3-0.4,0.5-0.7,0.9
		C386.1,35,385,32.3,383.9,29.9z"/>
	<path class="st2" d="M359.3,37.1c-0.3,0.1-0.6,0.2-1,0.4c0.2,0.1,0.1,0.1,0,0c-1.1-2-1.8-4.2-3-6.2c-0.3-0.5-0.4-1.1-0.7-1.8
		c0.1-0.1,0.3-0.3,0.4-0.4c0.3,0.1,0.4,0.1,0.4,0.2c0.4,0.7,1,1.4,1.2,2.1c0.2,0.9,0.8,1.6,1.1,2.5
		C358.2,34.8,358.7,35.9,359.3,37.1z"/>
	<path class="st0" d="M341.3,28.8c0.2,0.3,0.4,0.5,0.6,0.8c-1.3,2.7-2.5,5.3-3.8,8.1c-0.3-0.2-0.5-0.4-0.8-0.6c1-2.6,2.4-5,3.4-7.6
		C340.7,29.3,341,29.1,341.3,28.8z"/>
	<path class="st0" d="M189.9,29c0.2,0.1,0.3,0.1,0.3,0.2c0.1,0.1,0.3,0.3,0.4,0.4c-1.3,2.7-2.5,5.3-3.8,8.1
		c-0.3-0.2-0.5-0.4-0.8-0.6c1-2.6,2.4-5,3.4-7.6C189.6,29.3,189.8,29.1,189.9,29z"/>
	<path class="st0" d="M248.3,53.5c0.1,0.3,0.2,0.5,0.4,1c-1.1,2.3-2.3,5-3.6,7.6c-0.2,0-0.3,0-0.3,0c-0.2-0.1-0.3-0.3-0.5-0.5
		c1.2-2.7,2.4-5.4,3.7-8C248,53.6,248.2,53.6,248.3,53.5z"/>
	<path class="st0" d="M140,29.6c0.1-0.2,0.2-0.5,0.4-1c1.5,3,2.7,5.7,3.9,8.5c-0.4,0.1-0.8,0.1-1.1,0.2c-0.6-1.3-1.3-2.6-1.8-4
		C140.9,32,139.8,30.9,140,29.6z"/>
	<path class="st2" d="M122.7,28.8c0.3,0.3,0.5,0.4,0.6,0.6c1.1,2.5,2.3,5,3.4,7.5c-0.2,0.3-0.4,0.5-0.7,0.9
		c-1.5-2.9-2.6-5.6-3.9-8.3C122.3,29.3,122.5,29.1,122.7,28.8z"/>
	<path class="st0" d="M110.7,29.4c0.3-0.2,0.5-0.3,0.8-0.5c1.3,2.8,2.5,5.5,3.8,8.3c-0.5,0-0.8,0-1.2,0c-0.6-1.2-1.2-2.5-1.7-3.8
		C111.8,32.1,110.8,31,110.7,29.4z"/>
	<path class="st0" d="M108.7,28.9c0.3,0.3,0.5,0.4,0.8,0.7c-0.4,0.8-0.8,1.6-1.2,2.4c-0.9,1.8-1.7,3.7-2.6,5.6
		c-0.3-0.2-0.6-0.4-0.9-0.6c0.1-0.3,0.3-0.5,0.4-0.8c0.7-1.7,1.4-3.3,2.3-4.9c0.3-0.6,0.5-1.2,0.7-1.7
		C108.2,29.4,108.4,29.2,108.7,28.9z"/>
	<path class="st2" d="M301.1,61.6c-0.3,0.3-0.5,0.4-0.8,0.7c-1.3-2.8-2.5-5.5-3.7-8c0.2-0.3,0.4-0.5,0.5-0.7
		c0.2,0.1,0.3,0.1,0.4,0.2c0.4,0.7,0.9,1.3,1.1,2c0.2,0.9,0.7,1.6,1.1,2.5C300.1,59.4,300.6,60.4,301.1,61.6z"/>
	<path class="st0" d="M318.7,61.8c-0.5,0-0.9,0-1.2,0c-1.1-2.3-2.2-4.7-3.3-7.1c-0.1-0.2,0-0.4,0-0.7c0.2-0.1,0.4-0.3,0.7-0.6
		C316.2,56.3,317.4,59,318.7,61.8z"/>
	<path class="st2" d="M326.2,65.7c0.3,0.3,0.5,0.4,0.6,0.6c1.1,2.5,2.3,5,3.4,7.5c-0.2,0.3-0.4,0.5-0.7,0.9
		c-1.5-2.9-2.6-5.6-3.9-8.3C325.8,66.2,325.9,66,326.2,65.7z"/>
	<path class="st0" d="M338.1,62.4c-0.4-0.3-0.5-0.5-0.8-0.7c0.1-0.3,0.3-0.5,0.4-0.8c0.7-1.7,1.4-3.3,2.3-4.9
		c0.3-0.6,0.5-1.2,0.7-1.7c0.1-0.2,0.2-0.3,0.3-0.4c0.1-0.1,0.2-0.1,0.3-0.2c0.2,0.2,0.4,0.3,0.7,0.6c-0.4,0.8-0.8,1.6-1.2,2.4
		C339.9,58.5,339,60.3,338.1,62.4z"/>
	<path class="st0" d="M343.3,54.1c0.2-0.2,0.4-0.3,0.7-0.6c1.3,2.8,2.5,5.5,3.8,8.3c-0.4,0-0.8,0.1-1.2,0.1
		c-1.1-2.4-2.2-4.8-3.3-7.1C343.2,54.6,343.3,54.4,343.3,54.1z"/>
	<path class="st2" d="M359.3,61.7c-0.3,0.1-0.6,0.2-1,0.4c0.2,0.1,0.1,0.1,0,0c-1.1-2-1.8-4.2-3-6.2c-0.3-0.5-0.4-1.1-0.6-1.8
		c0.2-0.1,0.5-0.2,0.9-0.3c-0.2-0.1-0.1-0.1,0,0c0.4,0.7,1,1.4,1.2,2.1c0.2,0.9,0.8,1.6,1.1,2.5C358.2,59.4,358.7,60.5,359.3,61.7z"
		/>
	<path class="st0" d="M18.4,25.4c-0.3-0.3-0.5-0.4-0.8-0.7c0.1-0.3,0.3-0.6,0.4-0.9c1-2.2,2-4.3,2.9-6.5c0.1-0.2,0.3-0.4,0.5-0.8
		c0.3,0.2,0.5,0.4,0.8,0.6c-0.2,0.5-0.5,1-0.7,1.5C20.5,20.9,19.5,23.1,18.4,25.4z"/>
	<path class="st0" d="M16.4,29.6c-1.3,2.7-2.5,5.3-3.8,8c-0.3-0.2-0.5-0.4-0.8-0.6c0.1-0.3,0.3-0.5,0.4-0.8c0.7-1.7,1.4-3.3,2.3-4.9
		c0.3-0.6,0.5-1.2,0.7-1.7c0.1-0.2,0.2-0.3,0.3-0.4c0.1-0.1,0.2-0.1,0.3-0.2C15.9,29.1,16.1,29.3,16.4,29.6z"/>
	<path class="st0" d="M283.2,102.9c0.2,0.2,0.4,0.3,0.6,0.6c-0.4,0.8-0.8,1.6-1.2,2.4c-0.9,1.8-1.7,3.7-2.6,5.6
		c-0.3-0.2-0.6-0.4-0.9-0.6c0.1-0.3,0.3-0.5,0.4-0.8c0.7-1.7,1.4-3.3,2.3-4.9c0.3-0.6,0.5-1.2,0.7-1.7c0.1-0.2,0.2-0.3,0.3-0.4
		C282.9,103,283,102.9,283.2,102.9z"/>
	<path class="st0" d="M343.5,103.5c0.1-0.2,0.2-0.5,0.4-1c1.5,3,2.7,5.7,3.9,8.5c-0.4,0.1-0.8,0.1-1.1,0.2c-0.6-1.3-1.3-2.6-1.8-4
		C344.3,105.9,343.3,104.8,343.5,103.5z"/>
	<path class="st2" d="M359.2,110.9c-0.2,0.3-0.4,0.5-0.7,0.9c-1.5-2.9-2.6-5.6-3.9-8.3c0.2-0.2,0.4-0.4,0.6-0.7
		c0.3,0.3,0.5,0.4,0.6,0.6C357,105.8,358.1,108.3,359.2,110.9z"/>
	<path class="st0" d="M372.3,103.3c0.2-0.2,0.4-0.3,0.7-0.6c1.3,2.8,2.5,5.5,3.8,8.3c-0.4,0.1-0.8,0.1-1.1,0.1
		c-1.1-2.4-2.3-4.8-3.3-7.1C372.3,103.8,372.3,103.5,372.3,103.3z"/>
	<path class="st0" d="M28.1,123.4c-0.5,0-0.8,0-1.2,0.1c-1.1-2.4-2.2-4.8-3.3-7.2c-0.1-0.2,0-0.4,0-0.6c0.2-0.2,0.4-0.3,0.7-0.6
		C25.6,117.9,26.8,120.6,28.1,123.4z"/>
	<path class="st0" d="M50.5,115c0.3,0.4,0.5,0.6,0.7,0.7c0,0.8-0.6,1.4-0.9,2c-0.9,2-1.8,3.9-2.7,5.9c0,0.1-0.1,0.1-0.3,0.2
		c-0.2-0.2-0.4-0.3-0.6-0.6c0.1-0.3,0.2-0.5,0.3-0.8c0.7-2,1.9-3.7,2.5-5.7C49.7,116.2,50.1,115.7,50.5,115z"/>
	<path class="st2" d="M180.3,78.8c0.3-0.3,0.4-0.4,0.7-0.6c1.1,1.2,1.4,2.7,2,4c0.6,1.3,1.2,2.6,1.9,3.9c-0.3,0.3-0.5,0.5-0.8,0.9
		C182.7,84.2,181.5,81.5,180.3,78.8z"/>
	<path class="st0" d="M173.3,86.4c-0.4,0-0.7,0-1.1,0c-0.6-1.2-1.2-2.5-1.8-3.9c-0.5-1.3-1.5-2.4-1.4-3.7c0.1-0.2,0.2-0.4,0.3-0.6
		c0.2,0.1,0.3,0.1,0.3,0.1c1,1.8,1.6,3.8,2.7,5.6C172.8,84.7,173,85.6,173.3,86.4z"/>
	<path class="st0" d="M131.8,115c0.4,0.3,0.6,0.5,0.8,0.7c-0.4,1-0.9,1.9-1.3,2.9c-0.8,1.7-1.6,3.4-2.5,5.2
		c-0.3-0.2-0.5-0.3-0.8-0.6c0.1-0.3,0.3-0.5,0.3-0.8c0.7-2,1.8-3.7,2.5-5.7C131,116.2,131.4,115.7,131.8,115z"/>
	<path class="st0" d="M128.5,86.9c-0.1-0.3-0.2-0.5-0.4-1c1-2.4,2.3-5,3.6-7.8c0.4,0.3,0.6,0.5,0.9,0.7c-1.3,2.7-2.5,5.4-3.8,8
		C128.7,86.8,128.6,86.9,128.5,86.9z"/>
	<path class="st0" d="M196,115c0.2,0.3,0.4,0.5,0.6,0.8c-1.3,2.7-2.5,5.3-3.8,8.1c-0.3-0.2-0.5-0.4-0.8-0.6c1-2.6,2.4-5,3.4-7.6
		C195.4,115.4,195.7,115.3,196,115z"/>
	<path class="st2" d="M267.5,115.9c0.2-0.4,0.3-0.6,0.4-0.8c0.2,0.1,0.4,0.2,0.4,0.3c0.4,0.7,0.9,1.3,1.1,2c0.2,0.9,0.7,1.6,1.1,2.5
		c0.4,1.1,0.9,2.1,1.5,3.3c-0.3,0.2-0.5,0.4-0.8,0.7C269.9,121.1,268.7,118.5,267.5,115.9z"/>
	<path class="st0" d="M274.1,123.9c-0.3-0.3-0.5-0.4-0.8-0.7c0.1-0.3,0.3-0.6,0.4-0.9c1-2.2,2-4.3,2.9-6.5c0.1-0.2,0.3-0.5,0.5-0.8
		c0.3,0.2,0.5,0.4,0.8,0.6c-0.2,0.5-0.5,1-0.7,1.5C276.2,119.4,275.2,121.6,274.1,123.9z"/>
	<path class="st0" d="M102.7,16.5c0.9,0.8,0.8,0.8,0.5,1.4c-1.2,2.4-2.3,4.9-3.5,7.4c-0.3-0.2-0.5-0.4-0.7-0.6c0-0.2,0-0.5,0.1-0.7
		C100.3,21.6,101.4,19.1,102.7,16.5z"/>
	<path class="st0" d="M50.6,78c0.3,0.4,0.4,0.6,0.6,0.9c-0.2,0.4-0.4,0.8-0.6,1.3c-1,2.1-2,4.2-2.9,6.4c0,0.1-0.1,0.1-0.3,0.2
		c-0.2-0.2-0.4-0.3-0.7-0.6c0.1-0.3,0.3-0.6,0.4-0.9c1-2.2,2-4.3,2.9-6.5C50.1,78.7,50.3,78.5,50.6,78z"/>
	<path class="st0" d="M274.1,25.4c-0.4-0.3-0.5-0.5-0.8-0.7c0.1-0.3,0.3-0.5,0.4-0.8c0.7-1.7,1.4-3.3,2.3-4.9
		c0.3-0.6,0.5-1.2,0.7-1.7c0.1-0.2,0.3-0.4,0.5-0.7c0.3,0.3,0.5,0.4,0.8,0.7c-0.4,0.8-0.8,1.6-1.2,2.4
		C275.9,21.5,275,23.4,274.1,25.4z"/>
	<path class="st0" d="M376.9,74.1c-0.5,0-0.9,0-1.2,0c-1.1-2.4-2.2-4.7-3.3-7.1c-0.1-0.2,0-0.4,0-0.6c0.2-0.2,0.4-0.3,0.7-0.6
		C374.3,68.6,375.6,71.3,376.9,74.1z"/>
	<path class="st0" d="M202.5,24.9c-0.6,0-0.9,0-1.2,0c-1.1-2.4-2.2-4.7-3.3-7.1c-0.1-0.2,0-0.4,0-0.6c0.2-0.2,0.4-0.3,0.7-0.6
		C199.9,19.4,201.2,22,202.5,24.9z"/>
	<path class="st0" d="M399.3,65.7c0.3,0.4,0.5,0.6,0.6,0.8c0,0.7-0.5,1.3-0.9,1.9c-0.9,2-1.8,3.9-2.7,5.9c0,0.1-0.1,0.1-0.3,0.2
		c-0.2-0.2-0.4-0.3-0.6-0.6c0.1-0.3,0.2-0.5,0.3-0.8c0.7-2,1.9-3.7,2.5-5.7C398.4,66.9,398.9,66.4,399.3,65.7z"/>
	<path class="st3" d="M36.9,41.6c0.2,0,0.4,0,0.6,0c0,0,0.1,0.1,0.1,0.1c0,3.1,0,6.1,0,9.2c-0.2,0-0.5,0-0.7,0
		C36.7,50.8,36.7,43,36.9,41.6z"/>
	<path class="st3" d="M37.6,38.7c-0.3,0-0.5,0-0.8,0c0-3.1,0-6.2,0-9.3c0.3,0,0.5,0,0.8,0C37.6,32.5,37.6,35.6,37.6,38.7z"/>
	<path class="st3" d="M37.6,26.4c-0.3,0-0.5,0-0.8,0c0-3.1,0-6.2,0-9.3c0.3,0,0.5,0,0.8,0C37.6,20.2,37.6,23.3,37.6,26.4z"/>
	<path class="st4" d="M30.9,69.2c0.5,0.2,0.9,0.5,1.4,0.5c0.5,0,1-0.2,1.5-0.3c0,0.3,0,0.5,0,0.8c-0.2,0.2-0.4,0.4-0.8,0.8
		c-0.4-0.1-1-0.1-1.4-0.4c-0.5-0.3-0.9-0.4-1.3-0.1c-0.4,0.2-0.8,0.2-1.2,0C29.3,69.5,30.3,69.6,30.9,69.2z"/>
	<path class="st0" d="M193.5,44.5c0.8,0.4,1.6,0.5,3.2,0.4c0,0,0.1,0.1,0.1,0.1c0,0.2,0,0.4,0,0.6c-0.6,0.5-1.2,0.9-2.1,0.5
		c-0.6-0.3-1.4-0.6-2.1,0c-0.1,0.1-0.3,0-0.6-0.1C192.2,45.1,192.9,45,193.5,44.5z"/>
	<path class="st5" d="M359.4,44.9c0,0.3,0,0.5,0,0.8c-0.4,0.2-0.8,0.5-1.3,0.7c-0.4-0.1-0.7-0.2-0.9-0.4c-0.4-0.4-0.9-0.4-1.3-0.1
		c-0.4,0.2-0.8,0.2-1.3,0c0.2-0.8,0.9-1.1,1.6-1.4C357.2,45.3,358.3,45.1,359.4,44.9z"/>
	<path class="st5" d="M39.7,69.5c0,0.4,0,0.6,0,0.9c-0.4,0.2-0.8,0.5-1.2,0.7c-0.2-0.1-0.4-0.3-0.6-0.3c-0.6-0.2-1.1-0.7-1.8-0.1
		c-0.2,0.2-0.6,0-1,0c0.1-0.9,0.9-1.1,1.4-1.5c0.5,0.2,1,0.5,1.5,0.6C38.5,69.8,39,69.6,39.7,69.5z"/>
	<path class="st1" d="M383.5,74.7c0-0.3,0-0.5,0-0.8c1.7,0,3.5,0,5.2,0c0,0.3,0,0.5,0,0.8C387,74.7,385.3,74.7,383.5,74.7z"/>
	<path class="st6" d="M63.2,61.6c0,0.3,0,0.5,0,0.8c-1.7,0-3.5,0-5.2,0c0-0.8,0-0.8,0.5-0.8C60.1,61.6,61.6,61.6,63.2,61.6z"/>
	<path class="st1" d="M69,61.6c0,0.3,0,0.5,0,0.8c-1.7,0-3.5,0-5.2,0c0-0.8,0-0.8,0.5-0.8C65.9,61.6,67.5,61.6,69,61.6z"/>
	<path class="st6" d="M261.4,74.7c0-0.3,0-0.5,0-0.8c1.8,0,3.5,0,5.2,0c0,0.3,0,0.5,0,0.8C264.9,74.7,263.1,74.7,261.4,74.7z"/>
	<path class="st6" d="M208.5,123.1c0,0.3,0,0.5,0,0.8c-1.7,0-3.5,0-5.2,0c0-0.8,0-0.8,0.5-0.8C205.4,123.1,206.9,123.1,208.5,123.1z
		"/>
	<path class="st7" d="M144.5,62.4c-1.7,0-3.4,0-5.2,0c0-0.3,0-0.5,0-0.8c0,0,0,0,0.1,0c1.7,0,3.4,0,5.1,0
		C144.5,61.8,144.5,62.1,144.5,62.4z"/>
	<path class="st6" d="M145.1,62.4c0-0.3,0-0.5,0-0.7c0,0,0.1-0.1,0.1-0.1c1.7,0,3.4,0,5.1,0c0,0.2,0,0.5,0,0.8
		C148.6,62.5,146.9,62.5,145.1,62.4z"/>
	<path class="st1" d="M121.9,0.8c0-0.3,0-0.5,0-0.8c1.7,0,3.4,0,5.2,0c0,0.2,0,0.5,0.1,0.8C125.5,0.8,123.8,0.8,121.9,0.8z"/>
	<path class="st7" d="M231.7,61.6c0,0.3,0,0.5,0,0.8c-1.7,0-3.4,0-5.2,0c0-0.2,0-0.5-0.1-0.8C228.2,61.6,229.9,61.6,231.7,61.6z"/>
	<path class="st6" d="M116.1,0.8c0-0.3,0-0.5,0-0.8c1.8,0,3.5,0,5.2,0c0,0.3,0,0.5,0,0.8C119.6,0.8,117.9,0.8,116.1,0.8z"/>
	<path class="st7" d="M284.6,13.2c0-0.3,0-0.5,0-0.8c1.7,0,3.5,0,5.2,0c0,0.8,0,0.8-0.5,0.8C287.7,13.2,286.2,13.2,284.6,13.2z"/>
	<path class="st1" d="M388.7,61.6c0,0.3,0,0.5,0,0.8c-1.7,0-3.5,0-5.2,0c0-0.3,0-0.5,0-0.8C385.3,61.6,387,61.6,388.7,61.6z"/>
	<path class="st1" d="M40,12.4c0,0.3,0,0.5,0,0.8c-1.7,0-3.5,0-5.2,0c0-0.3,0-0.5,0-0.8C36.5,12.4,38.2,12.4,40,12.4z"/>
	<path class="st7" d="M255.5,73.9c1.7,0,3.4,0,5.2,0c0,0.3,0,0.5,0,0.9c-1.7,0-3.4,0-5.2,0C255.5,74.5,255.5,74.3,255.5,73.9z"/>
	<path class="st6" d="M377.6,99.3c0-0.3,0-0.5,0-0.8c1.7,0,3.5,0,5.2,0c0,0.3,0,0.5,0,0.8C381.2,99.3,379.5,99.3,377.6,99.3z"/>
	<path class="st1" d="M40,0.1c0,0.3,0,0.5,0,0.8c-1.7,0-3.4,0-5.2,0c0-0.2,0-0.5-0.1-0.8C36.5,0.1,38.2,0.1,40,0.1z"/>
	<path class="st7" d="M377,98.5c0,0.3,0,0.5,0,0.8c-1.7,0-3.5,0-5.2,0c0-0.8,0-0.8,0.5-0.8C373.9,98.5,375.4,98.5,377,98.5z"/>
	<path class="st1" d="M301.6,49.3c0,0.3,0,0.5,0,0.8c-1.7,0-3.4,0-5.2,0c0-0.2,0-0.5-0.1-0.8C298.1,49.3,299.8,49.3,301.6,49.3z"/>
	<path class="st7" d="M168.3,50.1c0-0.3,0-0.5,0-0.8c1.8,0,3.5,0,5.2,0c0,0.3,0,0.5,0,0.8C171.8,50.1,170.1,50.1,168.3,50.1z"/>
	<path class="st1" d="M63.8,50.1c0-0.3,0-0.5,0-0.8c1.7,0,3.5,0,5.2,0c0,0.8,0,0.8-0.5,0.8C66.9,50.1,65.4,50.1,63.8,50.1z"/>
	<path class="st6" d="M63.2,49.3c0,0.3,0,0.5,0,0.8c-1.7,0-3.5,0-5.2,0c0-0.3,0-0.5,0-0.8C59.7,49.3,61.4,49.3,63.2,49.3z"/>
	<path class="st1" d="M209.1,87c0-0.3,0-0.5,0-0.8c1.8,0,3.5,0,5.2,0c0,0.3,0,0.5,0,0.8C212.7,87,211,87,209.1,87z"/>
	<path class="st7" d="M371.8,87c0-0.3,0-0.5,0-0.8c1.8,0,3.5,0,5.2,0c0,0.3,0,0.5,0,0.8C375.3,87,373.6,87,371.8,87z"/>
	<path class="st6" d="M382.9,86.2c0,0.3,0,0.5,0,0.8c-1.7,0-3.4,0-5.2,0c0-0.2,0-0.5-0.1-0.8C379.4,86.2,381.1,86.2,382.9,86.2z"/>
	<path class="st7" d="M115.4,0c0,0.3,0,0.5,0,0.8c-1.7,0-3.5,0-5.2,0c0-0.8,0-0.8,0.5-0.8C112.3,0,113.9,0,115.4,0z"/>
	<path class="st1" d="M34.8,124c0-0.3,0-0.5,0-0.8c1.8,0,3.5,0,5.2,0c0,0.3,0,0.5,0,0.8C38.2,124,36.5,124,34.8,124z"/>
	<path class="st6" d="M116.1,124c0-0.3,0-0.5,0-0.8c1.8,0,3.5,0,5.2,0c0,0.3,0,0.5,0,0.8C119.6,124,117.9,124,116.1,124z"/>
	<path class="st1" d="M359.7,0.1c0,0.3,0,0.5,0,0.7c0,0-0.1,0.1-0.1,0.1c-1.7,0-3.4,0-5.1,0c0-0.2,0-0.5,0-0.8
		C356.2,0,357.9,0,359.7,0.1z"/>
	<path class="st7" d="M284.6,124c0-0.3,0-0.5,0-0.7c0,0,0.1-0.1,0.1-0.1c1.7,0,3.4,0,5.1,0c0,0.2,0,0.5,0,0.8
		C288.1,124,286.3,124,284.6,124z"/>
	<path class="st0" d="M343.3,70.6c0-0.3,0-0.5,0-0.7c0.5-0.2,0.9-0.5,1.5-0.8c0.9,0.5,1.8,1,2.9,0.2c0,0.4,0,0.6,0.1,0.9
		c-0.2,0.2-0.5,0.4-0.8,0.7c-0.2,0-0.6,0.1-0.8-0.1c-0.8-0.6-1.5-0.6-2.3-0.2C343.6,70.7,343.5,70.6,343.3,70.6z"/>
	<path class="st6" d="M28.9,0c1.7,0,3.4,0,5.2,0c0,0.2,0,0.5,0,0.8c-1.7,0-3.4,0-5.2,0C28.9,0.6,28.9,0.4,28.9,0z"/>
	<path class="st7" d="M284.6,0.8c0-0.3,0-0.5,0-0.8c1.7,0,3.5,0,5.2,0c0,0.3,0,0.5,0,0.8C288.1,0.8,286.3,0.8,284.6,0.8z"/>
	<path class="st1" d="M121.9,124c0-0.3,0-0.5,0-0.8c1.7,0,3.5,0,5.2,0c0,0.3,0,0.5,0,0.8C125.4,124,123.7,124,121.9,124z"/>
	<path class="st7" d="M202.6,0.1c0,0.3,0,0.5,0,0.8c-1.7,0-3.5,0-5.2,0c0-0.3,0-0.5,0-0.8C199.1,0.1,200.9,0.1,202.6,0.1z"/>
	<path class="st7" d="M231.7,73.9c0,0.3,0,0.5,0,0.8c-1.7,0-3.5,0-5.2,0c0-0.3,0-0.5,0-0.8C228.2,73.9,229.9,73.9,231.7,73.9z"/>
	<path class="st7" d="M202.6,123.2c0,0.3,0,0.5,0,0.8c-1.8,0-3.5,0-5.2,0c0-0.3,0-0.5,0-0.8C199.1,123.2,200.9,123.2,202.6,123.2z"
		/>
	<path class="st6" d="M208.5,0.1c0,0.3,0,0.5,0,0.8c-1.7,0-3.4,0-5.2,0c0-0.2,0-0.5-0.1-0.8C205,0.1,206.7,0.1,208.5,0.1z"/>
	<path class="st1" d="M394.3,62.4c-1.8,0-3.5,0-5.4,0c0.2-0.3,0.4-0.6,0.5-0.8c1.6,0,3.2,0,4.9,0C394.3,61.8,394.3,62.1,394.3,62.4z
		"/>
	<path class="st1" d="M307.7,62.4c0.2-0.3,0.3-0.5,0.4-0.8c1.6,0,3.2,0,4.9,0c0,0.2,0,0.5,0.1,0.8C311.2,62.4,309.5,62.4,307.7,62.4
		z"/>
	<path class="st1" d="M301.8,62.4c0.2-0.3,0.3-0.6,0.4-0.8c1.6,0,3.2,0,4.9,0c0,0.2,0,0.5,0.1,0.8C305.4,62.4,303.6,62.4,301.8,62.4
		z"/>
	<path class="st1" d="M220.3,62.4c0.3-0.4,0.4-0.6,0.6-0.8c1.6,0,3.3,0,4.9,0c0,0.3,0,0.5,0,0.8C224.1,62.4,222.3,62.4,220.3,62.4z"
		/>
	<path class="st1" d="M109.6,61.6c0,0.3,0,0.5,0,0.8c-1.7,0-3.5,0-5.2,0c-0.1-0.6,0.2-0.8,0.7-0.8C106.5,61.6,108,61.6,109.6,61.6z"
		/>
	<path class="st1" d="M98.3,62.4c0.2-0.3,0.3-0.6,0.4-0.8c1.6,0,3.2,0,4.9,0c0,0.2,0,0.5,0,0.8C101.9,62.4,100.2,62.4,98.3,62.4z"/>
	<path class="st1" d="M359.9,124c0.2-0.3,0.3-0.5,0.4-0.8c1.6,0,3.2,0,4.9,0c0,0.2,0,0.5,0.1,0.8C363.5,124,361.8,124,359.9,124z"/>
	<path class="st1" d="M40.1,0.8c0.3-0.4,0.4-0.6,0.6-0.8c1.6,0,3.2,0,4.9,0c0,0.3,0,0.5,0,0.8C43.8,0.8,42.1,0.8,40.1,0.8z"/>
	<path class="st1" d="M278.6,124c0.2-0.3,0.3-0.5,0.4-0.8c1.6,0,3.2,0,4.9,0c0,0.2,0,0.5,0.1,0.8C282.2,124,280.5,124,278.6,124z"/>
	<path class="st1" d="M196.8,0.1c0,0.3,0,0.5,0,0.8c-1.7,0-3.5,0-5.3,0c0.2-0.3,0.3-0.5,0.4-0.8C193.5,0.1,195.1,0.1,196.8,0.1z"/>
	<path class="st1" d="M272.6,0.9c0.3-0.4,0.4-0.6,0.6-0.8c1.6,0,3.2,0,4.9,0c0,0.8,0,0.8-0.5,0.8C276,0.9,274.4,0.9,272.6,0.9z"/>
	<path class="st1" d="M279,0c1.7,0,3.3,0,4.9,0c0,0.3,0,0.5,0,0.8c-1.7,0-3.4,0-5.3,0C278.8,0.5,278.9,0.3,279,0z"/>
	<path class="st1" d="M365.3,0c0,0.3,0,0.5,0,0.8c-1.7,0-3.5,0-5.2,0c-0.1-0.6,0.2-0.8,0.7-0.8C362.2,0,363.7,0,365.3,0z"/>
	<path class="st1" d="M40.1,124c0.3-0.4,0.4-0.6,0.6-0.8c1.6,0,3.3,0,4.9,0c0,0.3,0,0.5,0,0.8C43.8,124,42.1,124,40.1,124z"/>
	<path class="st1" d="M365.8,0.8c0.2-0.3,0.3-0.5,0.4-0.8c1.6,0,3.2,0,4.9,0c0,0.2,0,0.5,0.1,0.8C369.4,0.8,367.6,0.8,365.8,0.8z"/>
	<path class="st1" d="M40.2,13.2c0.2-0.3,0.3-0.5,0.4-0.8c1.6,0,3.2,0,4.9,0c0,0.2,0,0.5,0.1,0.8C43.8,13.2,42.1,13.2,40.2,13.2z"/>
	<path class="st1" d="M278.4,13.2c0.3-0.4,0.4-0.6,0.6-0.8c1.6,0,3.3,0,4.9,0c0,0.3,0,0.5,0,0.8C282.2,13.2,280.5,13.2,278.4,13.2z"
		/>
	<path class="st1" d="M366.2,110.9c1.7,0,3.3,0,4.9,0c0,0.3,0,0.5,0,0.8c-1.8,0-3.5,0-5.3,0C366,111.3,366.1,111.1,366.2,110.9z"/>
	<path class="st1" d="M371.1,123.2c0,0.3,0,0.5,0,0.8c-1.8,0-3.5,0-5.3,0c0.2-0.3,0.3-0.5,0.4-0.8
		C367.8,123.2,369.4,123.2,371.1,123.2z"/>
	<path class="st1" d="M359.8,111.7c0.3-0.4,0.4-0.6,0.6-0.8c1.6,0,3.2,0,4.9,0c0,0.2,0,0.5,0.1,0.8
		C363.5,111.7,361.8,111.7,359.8,111.7z"/>
	<path class="st1" d="M273.2,37c1.6,0,3.2,0,4.9,0c0,0.2,0,0.5,0,0.8c-1.7,0.1-3.5,0-5.4,0.1C272.9,37.4,273,37.2,273.2,37z"/>
	<path class="st1" d="M283.9,37c0,0.3,0,0.5,0,0.8c-1.7,0-3.5,0-5.3,0c0.1-0.3,0.3-0.5,0.4-0.8C280.7,37,282.3,37,283.9,37z"/>
	<path class="st1" d="M219.9,86.2c0,0.3,0,0.5,0,0.8c-1.7,0-3.5,0-5.3,0c0.1-0.3,0.3-0.5,0.4-0.8C216.7,86.2,218.3,86.2,219.9,86.2z
		"/>
	<path class="st1" d="M45.6,49.3c0,0.3,0,0.5,0,0.8c-1.7,0-3.5,0-5.3,0c0.2-0.3,0.3-0.5,0.4-0.8C42.3,49.3,43.9,49.3,45.6,49.3z"/>
	<path class="st1" d="M46.1,50.1c0.2-0.3,0.3-0.6,0.4-0.8c1.6,0,3.2,0,4.9,0c0,0.2,0,0.5,0.1,0.8C49.7,50.1,47.9,50.1,46.1,50.1z"/>
	<path class="st1" d="M301.6,50.1c0.3-0.4,0.4-0.6,0.6-0.8c1.6,0,3.3,0,4.9,0c0,0.3,0,0.5,0,0.8C305.4,50.1,303.7,50.1,301.6,50.1z"
		/>
	<path class="st1" d="M307.7,50.1c0.2-0.3,0.3-0.6,0.4-0.8c1.6,0,3.2,0,4.9,0c0,0.2,0,0.5,0,0.8C311.2,50.1,309.5,50.1,307.7,50.1z"
		/>
	<path class="st1" d="M388.9,74.7c0.3-0.4,0.4-0.6,0.6-0.8c1.6,0,3.2,0,4.9,0c0,0.3,0,0.5,0,0.8C392.6,74.7,390.9,74.7,388.9,74.7z"
		/>
	<path class="st1" d="M225.8,74.7c-1.8,0-3.5,0-5.4,0c0.2-0.3,0.4-0.6,0.5-0.8c1.6,0,3.2,0,4.9,0C225.8,74.2,225.8,74.4,225.8,74.7z
		"/>
	<path class="st1" d="M22.4,73.9c0,0.3,0,0.5,0,0.8c-1.8,0-3.5,0-5.3,0c0.2-0.3,0.3-0.5,0.4-0.8C19.1,73.9,20.7,73.9,22.4,73.9z"/>
	<path class="st1" d="M16.5,73.9c0,0.3,0,0.5,0,0.8c-1.7,0-3.5,0-5.3,0c0.1-0.3,0.3-0.5,0.4-0.8C13.2,73.9,14.8,73.9,16.5,73.9z"/>
	<path class="st0" d="M356.7,72.3c0.4,0.2,0.6,0.3,0.9,0.5c0,0.2,0,0.6,0,0.9c-0.3,0.1-0.6,0.3-0.9,0.5c-0.3-0.3-0.6-0.5-0.9-0.9
		C356.1,73,356.4,72.7,356.7,72.3z"/>
	<path class="st0" d="M183.3,35.9c0,0.3,0,0.6,0,0.9c-0.3,0.1-0.6,0.3-0.9,0.5c-0.3-0.3-0.6-0.5-0.9-0.9c0.3-0.3,0.6-0.7,0.9-1
		C182.6,35.6,183,35.8,183.3,35.9z"/>
	<path class="st0" d="M36,97.9c0.4-0.3,0.7-0.6,1.1-0.8c0.2,0.1,0.5,0.2,0.8,0.4c0,0.3,0,0.6,0,1c-0.2,0.1-0.5,0.3-0.9,0.5
		C36.7,98.6,36.4,98.3,36,97.9z"/>
	<path class="st0" d="M182.3,97c0.4,0.2,0.7,0.3,1,0.5c0,0.3,0,0.6,0,0.9c-0.3,0.1-0.6,0.3-1,0.5c-0.2-0.3-0.5-0.6-0.8-1
		C181.7,97.7,182,97.3,182.3,97z"/>
	<path class="st0" d="M269.5,61.9c-0.2-0.3-0.5-0.6-0.7-1c0.2-0.2,0.5-0.5,0.8-0.9c0.4,0.2,0.7,0.3,1,0.5c0,0.3,0,0.6,0,0.9
		C270.2,61.6,269.8,61.7,269.5,61.9z"/>
	<path class="st0" d="M95.3,49.5c-0.5-0.3-0.8-0.5-1.1-0.8c0.4-0.3,0.6-0.6,0.9-0.9c0.3,0.1,0.6,0.3,0.9,0.4c0,0.3,0,0.6,0,1
		c-0.2,0.1-0.4,0.1-0.5,0.2C95.4,49.4,95.3,49.5,95.3,49.5z"/>
	<path class="st0" d="M36.3,60.8c0.2-0.2,0.4-0.4,0.6-0.7c0.4,0.2,0.6,0.3,1,0.4c0,0.3,0,0.6,0,1c-0.3,0.1-0.5,0.3-0.9,0.5
		C36.8,61.6,36.6,61.2,36.3,60.8z"/>
	<path class="st0" d="M124.1,47.7c0.4,0.2,0.7,0.3,1,0.5c0,0.3,0,0.6,0,0.9c-0.3,0.1-0.6,0.3-1,0.5c-0.2-0.3-0.4-0.6-0.7-1
		C123.6,48.4,123.8,48.1,124.1,47.7z"/>
	<path class="st0" d="M181.5,48.5c0.2-0.2,0.5-0.4,1-0.7c0.1,0,0.4,0.2,0.8,0.4c0,0.3,0,0.6,0,0.9c0,0,0,0.1,0,0.1
		c-0.3,0.1-0.6,0.3-0.8,0.4C182.1,49.2,181.8,48.9,181.5,48.5z"/>
	<path class="st0" d="M7.9,60.1c0.3,0.2,0.6,0.3,1,0.4c0,0.3,0,0.6,0,1c-0.3,0.1-0.5,0.3-0.9,0.5c-0.3-0.3-0.5-0.6-0.9-1
		C7.3,60.7,7.6,60.4,7.9,60.1z"/>
	<path class="st0" d="M356.7,23.1c0.3,0.2,0.6,0.3,1,0.4c0,0.3,0,0.6,0,1c-0.3,0.1-0.5,0.3-0.9,0.5c-0.3-0.3-0.5-0.6-0.9-1
		C356.1,23.7,356.4,23.4,356.7,23.1z"/>
	<path class="st0" d="M270.4,24.5c-0.3,0.2-0.5,0.3-0.9,0.5c-0.3-0.2-0.6-0.5-0.9-0.9c0.3-0.3,0.6-0.7,0.9-1c0.3,0.1,0.6,0.3,1,0.4
		C270.4,23.8,270.4,24.2,270.4,24.5z"/>
	<path class="st0" d="M125.1,85.1c0,0.3,0,0.6,0,1c-0.3,0.1-0.6,0.3-0.9,0.4c-0.3-0.3-0.6-0.6-1-0.9c0.3-0.2,0.7-0.5,1.1-0.8
		C124.5,84.8,124.8,85,125.1,85.1z"/>
	<path class="st0" d="M94.2,85.5c0.4-0.2,0.7-0.4,1.2-0.7c0.1,0,0.4,0.2,0.7,0.3c0,0.3,0,0.6,0,0.9c-0.3,0.1-0.6,0.3-1,0.5
		C94.8,86.3,94.6,86,94.2,85.5z"/>
	<path class="st6" d="M252.8,56.6c0.1,0.1,0.2,0.2,0.4,0.4c-0.1,0.3-0.3,0.6-0.4,1c-0.3,0-0.6,0-0.9,0c-0.5-0.4-0.6-0.9,0-1.4
		C252,56.6,252.4,56.6,252.8,56.6z"/>
	<path class="st6" d="M187.8,56.6c0.3,0,0.6,0,0.9,0c0.1,0.1,0.3,0.3,0.5,0.5c-0.1,0.3-0.3,0.6-0.4,1c-0.3,0-0.7,0-0.9,0
		C187.2,57.6,187.2,57.1,187.8,56.6z"/>
	<path class="st6" d="M130.6,56.6c0.1,0.1,0.2,0.2,0.4,0.4c0,0,0,0.1,0,0.1c-0.1,0.3-0.3,0.6-0.4,0.9c-0.3,0-0.6,0-0.9,0
		c-0.5-0.4-0.6-0.9,0-1.4C129.9,56.6,130.2,56.6,130.6,56.6z"/>
	<path class="st6" d="M332.6,69.4c0.2-0.2,0.4-0.4,0.5-0.5c0.5,0,1.1-0.2,1.4,0.5c-0.1,0.3-0.2,0.6-0.4,0.9c-0.3,0-0.6,0-1.1,0
		C332.9,70,332.7,69.7,332.6,69.4z"/>
	<path class="st6" d="M49.8,57.1c-0.2,0.2-0.3,0.4-0.4,0.5c-0.1,0.1-0.1,0.3-0.1,0.4c-0.3,0-0.6,0-0.9,0c-0.6-0.7-0.6-0.7-0.1-1.4
		c0.3,0,0.6,0,1,0C49.4,56.8,49.6,56.9,49.8,57.1z"/>
	<path class="st6" d="M42.5,56.6c0.5-0.1,1.1-0.1,1.4,0.5c-0.1,0.3-0.2,0.6-0.4,0.9c-0.3,0-0.6,0-1,0C41.9,57.3,41.9,57.3,42.5,56.6
		z"/>
	<path class="st5" d="M37.6,58c-0.4,0-0.6,0-0.9,0c-0.1-0.3-0.3-0.6-0.4-0.8c0.2-0.7,0.8-0.6,1.3-0.6C38.1,57.3,38.1,57.3,37.6,58z"
		/>
	<path class="st6" d="M106.5,21.1c-0.6-0.5-0.5-0.9,0-1.4c0.5-0.1,1-0.1,1.4,0.5c-0.1,0.3-0.2,0.6-0.4,0.9
		C107.2,21.1,106.8,21.1,106.5,21.1z"/>
	<path class="st5" d="M8.6,56.6C8.8,57,8.9,57.3,9,57.6c-0.2,0.2-0.3,0.3-0.5,0.5c-0.2,0-0.5,0-0.9,0c-0.1-0.3-0.3-0.6-0.5-0.9
		C7.4,56.4,8,56.6,8.6,56.6z"/>
	<path class="st6" d="M187.3,20.2c0.2-0.2,0.4-0.4,0.5-0.5c0.5,0,1.1-0.2,1.4,0.5c-0.1,0.3-0.2,0.6-0.4,0.9c-0.3,0-0.6,0-1.1,0
		C187.6,20.8,187.4,20.5,187.3,20.2z"/>
	<path class="st6" d="M194.6,21.1c-0.4,0-0.7,0-0.9,0c-0.1-0.1-0.3-0.3-0.5-0.5c0.1-0.3,0.2-0.6,0.4-0.9c0.7-0.1,1.2-0.2,1.5,0.5
		C194.9,20.4,194.8,20.7,194.6,21.1z"/>
	<path class="st5" d="M270.1,21.1c-0.4,0-0.6,0-0.9,0c-0.1-0.3-0.3-0.6-0.4-0.8c0.2-0.7,0.8-0.6,1.3-0.6
		C270.6,20.3,270.6,20.3,270.1,21.1z"/>
	<path class="st7" d="M90.2,72.7c0,0.4,0,0.7,0,1c-0.3,0.1-0.6,0.3-0.9,0.5c-0.5-0.5-0.5-0.5-0.5-1.4c0.1-0.1,0.3-0.3,0.5-0.5
		C89.6,72.5,89.9,72.6,90.2,72.7z"/>
	<path class="st5" d="M356.3,21.1c-0.2-0.4-0.3-0.6-0.4-0.9c0.2-0.8,0.8-0.6,1.3-0.6c0.5,0.8,0.5,0.8,0,1.5
		C356.9,21.1,356.6,21.1,356.3,21.1z"/>
	<path class="st7" d="M30.6,23.6c0.8-0.5,0.8-0.5,1.4,0c0,0.3,0,0.6,0,0.9c-0.3,0.1-0.6,0.3-1,0.5c-0.1-0.2-0.2-0.4-0.4-0.8
		C30.6,24.2,30.6,23.9,30.6,23.6z"/>
	<path class="st6" d="M43.4,82.6c-0.3,0-0.6,0-0.9,0c-0.4-0.3-0.6-0.6-0.4-1c0.3-0.5,0.8-0.4,1.3-0.4c0.1,0.1,0.3,0.3,0.5,0.5
		C43.7,82,43.6,82.3,43.4,82.6z"/>
	<path class="st5" d="M95.6,82.7c-0.3,0-0.6,0-0.9,0c-0.1-0.3-0.3-0.6-0.5-0.9c0.3-0.7,0.8-0.6,1.4-0.5C96.2,82,96.2,82,95.6,82.7z"
		/>
	<path class="st5" d="M124.7,82.7c-0.4,0-0.6,0-0.9,0c-0.1-0.3-0.3-0.6-0.4-0.8c0.2-0.7,0.8-0.6,1.3-0.6
		C125.2,81.9,125.2,81.9,124.7,82.7z"/>
	<path class="st5" d="M357.2,68.9c0.7,0.6,0.6,1,0,1.4c-0.3,0-0.6,0-0.9,0c-0.1-0.3-0.3-0.6-0.4-0.9
		C356.1,68.8,356.7,68.9,357.2,68.9z"/>
	<path class="st7" d="M351.7,109.7c0,0.3,0,0.6,0,1c-0.3,0.1-0.6,0.3-1,0.5c-0.1-0.2-0.1-0.4-0.2-0.7c-0.1,0.1-0.1,0.1-0.2,0.2
		c0-0.3,0-0.6,0-0.9C351,109.3,351,109.3,351.7,109.7z"/>
	<path class="st6" d="M280.9,81.2c0.3,0,0.6,0,0.9,0c0.1,0.1,0.3,0.3,0.5,0.5c-0.1,0.3-0.3,0.6-0.4,1c-0.3,0-0.6,0-1,0
		C280.3,81.9,280.3,81.9,280.9,81.2z"/>
	<path class="st7" d="M32.1,110.7c-0.4,0.2-0.6,0.3-0.9,0.5c-0.7-0.3-0.6-0.8-0.5-1.4c0.7-0.5,0.7-0.5,1.4,0
		C32.1,110.1,32.1,110.4,32.1,110.7z"/>
	<path class="st6" d="M338.5,81.7c0.2-0.2,0.4-0.4,0.5-0.5c0.5,0,1.1-0.2,1.4,0.5c-0.1,0.3-0.2,0.6-0.4,0.9c-0.3,0-0.6,0-1.1,0
		C338.7,82.4,338.6,82,338.5,81.7z"/>
	<path class="st6" d="M361.7,81.7c0.2-0.2,0.4-0.4,0.5-0.5c0.5,0,1.1-0.2,1.4,0.5c-0.1,0.3-0.2,0.6-0.4,0.9c-0.3,0-0.6,0-1.1,0
		C361.9,82.4,361.8,82,361.7,81.7z"/>
	<path class="st6" d="M275.9,105.9c0.1,0.1,0.2,0.2,0.4,0.4c-0.1,0.3-0.3,0.6-0.4,1c-0.3,0-0.6,0-0.9,0c-0.5-0.4-0.6-0.9,0-1.4
		C275.2,105.9,275.6,105.9,275.9,105.9z"/>
	<path class="st5" d="M270.4,57.7c-0.1,0.1-0.2,0.2-0.4,0.4c-0.3,0-0.6,0-0.9,0c-0.2-0.3-0.3-0.6-0.5-1c0.2-0.2,0.3-0.3,0.5-0.5
		c0.3,0,0.6-0.1,0.9,0.1C270.4,56.8,270.6,57.2,270.4,57.7z"/>
	<path class="st6" d="M334.1,58c-0.3,0-0.6,0-0.9,0c-0.4-0.3-0.6-0.6-0.4-1c0.3-0.5,0.8-0.4,1.3-0.4c0.1,0.1,0.3,0.3,0.5,0.5
		C334.4,57.4,334.2,57.7,334.1,58z"/>
	<path class="st7" d="M177.4,85.2c0,0.3,0,0.6,0,0.9c-0.3,0.1-0.6,0.3-0.9,0.5c-0.7-0.3-0.6-0.8-0.5-1.4
		C176.7,84.6,176.7,84.6,177.4,85.2z"/>
	<path class="st6" d="M195,106.4c-0.1,0.3-0.3,0.6-0.4,0.9c-0.3,0-0.5,0-1,0c0-0.1-0.2-0.3-0.4-0.6c0-0.1,0.1-0.4,0.2-0.5
		C193.9,105.7,194.5,105.9,195,106.4z"/>
	<path class="st6" d="M187.3,106.4c0.2-0.2,0.4-0.4,0.5-0.5c0.5,0,1.1-0.2,1.4,0.5c-0.1,0.3-0.2,0.6-0.4,0.9c-0.3,0-0.6,0-1.1,0
		C187.6,107,187.4,106.7,187.3,106.4z"/>
	<path class="st6" d="M107.4,107.3c-0.3,0-0.6,0-0.9,0c-0.6-0.7-0.6-0.7-0.1-1.4c0.3,0,0.6,0,1,0c0.1,0.1,0.3,0.3,0.4,0.4
		C107.7,106.6,107.6,106.9,107.4,107.3z"/>
	<path class="st6" d="M275,68.9c0.3,0,0.6,0,0.9,0c0.1,0.1,0.3,0.3,0.5,0.5c-0.1,0.3-0.3,0.6-0.4,1c-0.3,0-0.6,0-1,0
		C274.4,69.6,274.4,69.6,275,68.9z"/>
	<path class="st7" d="M351.7,23.6c0,0.3,0,0.6,0,1c-0.3,0.1-0.6,0.3-1,0.5c-0.1-0.2-0.1-0.4-0.2-0.7c-0.1,0.1-0.1,0.1-0.2,0.2
		c0-0.3,0-0.6,0-0.9C351,23.1,351,23.1,351.7,23.6z"/>
	<path class="st6" d="M193.7,70.3c-0.5-0.7-0.5-0.7,0-1.4c0.5-0.1,1-0.1,1.4,0.5c-0.1,0.3-0.2,0.5-0.4,0.9
		C194.4,70.3,194,70.3,193.7,70.3z"/>
	<path class="st6" d="M20.2,33.4c-0.4,0-0.7,0-0.9,0c-0.1-0.1-0.3-0.3-0.5-0.5c0.1-0.3,0.2-0.6,0.4-0.9c0.7-0.1,1.2-0.2,1.5,0.5
		C20.5,32.8,20.4,33.1,20.2,33.4z"/>
	<path class="st7" d="M263.1,48.1c0.4-0.1,0.7-0.2,1-0.3c0.2,0.2,0.3,0.3,0.5,0.5c0,0.2,0,0.5,0,0.9c-0.3,0.1-0.6,0.3-0.9,0.5
		C263,49.3,263.1,48.7,263.1,48.1z"/>
	<path class="st6" d="M102,32.5c-0.2,0.4-0.3,0.7-0.5,1c-0.3,0-0.6,0-0.9,0c-0.6-0.7-0.6-0.7-0.1-1.4c0.3,0,0.6,0,1,0
		C101.7,32.1,101.8,32.3,102,32.5z"/>
	<path class="st7" d="M32.1,60.5c0,0.3,0,0.6,0,0.9c0,0,0,0.1,0,0.1c-0.3,0.1-0.6,0.3-0.9,0.4c-0.7-0.2-0.5-0.8-0.5-1.3
		C31.3,60,31.3,60,32.1,60.5z"/>
	<path class="st6" d="M130.6,70.3c-0.3,0-0.6,0-0.9,0c-0.4-0.3-0.6-0.6-0.4-1c0.3-0.5,0.8-0.4,1.3-0.4c0.1,0.1,0.3,0.3,0.5,0.5
		C130.9,69.7,130.8,70,130.6,70.3z"/>
	<path class="st6" d="M49.3,70.4c-0.4,0-0.7,0-1.1,0c-0.1-0.3-0.3-0.6-0.4-0.9c0.2-0.2,0.4-0.3,0.5-0.5c0.5-0.1,1-0.1,1.3,0.5
		C49.6,69.7,49.5,70,49.3,70.4z"/>
	<path class="st7" d="M31.1,49.6c-0.2-0.2-0.3-0.3-0.5-0.5c0-0.3,0-0.6,0-0.9c0.7-0.6,0.7-0.6,1.4-0.1c0,0.3,0,0.6,0,1
		C31.8,49.3,31.5,49.4,31.1,49.6z"/>
	<path class="st5" d="M183.4,32.9c-0.2,0.2-0.4,0.4-0.5,0.5c-0.3,0-0.6,0-0.9,0c-0.1-0.3-0.3-0.6-0.5-0.9c0.3-0.7,0.8-0.6,1.5-0.5
		C183.1,32.3,183.2,32.6,183.4,32.9z"/>
	<path class="st6" d="M369,45.7c-0.3,0-0.6,0-0.9,0c-0.6-0.7-0.6-0.7-0.1-1.4c0.5-0.1,1-0.1,1.4,0.5C369.3,45.1,369.1,45.4,369,45.7
		z"/>
	<path class="st7" d="M350.3,60.4c0.4-0.1,0.7-0.2,1-0.3c0.2,0.2,0.3,0.3,0.5,0.5c0,0.2,0,0.5,0,0.9c-0.3,0.1-0.6,0.3-0.9,0.5
		C350.2,61.6,350.3,61,350.3,60.4z"/>
	<path class="st6" d="M339,44.3c0.3,0,0.6,0,0.9,0c0.1,0.1,0.3,0.3,0.5,0.5c-0.1,0.3-0.3,0.6-0.4,1c-0.3,0-0.6,0-1,0
		C338.5,45,338.5,45,339,44.3z"/>
	<path class="st6" d="M361.7,32.5c0.2-0.2,0.4-0.4,0.5-0.5c0.5,0,1.1-0.2,1.4,0.5c-0.1,0.3-0.2,0.6-0.4,0.9c-0.3,0-0.6,0-1.1,0
		C361.9,33.1,361.8,32.8,361.7,32.5z"/>
	<path class="st7" d="M32.1,35.9c0,0.3,0,0.6,0,1c-0.3,0.1-0.6,0.3-1,0.5c-0.1-0.2-0.2-0.4-0.3-0.6c0,0-0.1,0.1-0.1,0.1
		c0-0.3,0-0.6,0-0.9C31.3,35.4,31.3,35.4,32.1,35.9z"/>
	<path class="st5" d="M181.9,45.7c-0.1-0.2-0.1-0.4-0.1-0.5c-0.1-0.1-0.2-0.2-0.3-0.3c0.3-0.7,0.8-0.7,1.4-0.6
		c0.6,0.7,0.6,0.7,0,1.4C182.5,45.7,182.2,45.7,181.9,45.7z"/>
	<path class="st5" d="M124.7,45.7c-0.4,0-0.6,0-0.9,0c-0.1-0.3-0.3-0.6-0.4-0.8c0.2-0.7,0.8-0.6,1.3-0.6
		C125.2,44.9,125.2,44.9,124.7,45.7z"/>
	<path class="st5" d="M96.2,45.2c-0.2,0.2-0.4,0.4-0.5,0.5c-0.3,0-0.6,0-0.9,0c-0.1-0.3-0.3-0.6-0.5-0.9c0.3-0.7,0.8-0.5,1.5-0.5
		C95.9,44.6,96,44.9,96.2,45.2z"/>
	<path class="st7" d="M118.3,37.3c-0.2-0.2-0.4-0.4-0.5-0.5c0-0.3,0-0.6,0-0.9c0.5-0.6,0.6-0.6,1.4-0.1c0,0,0.1,0.1,0.1,0.1
		c0,0.2,0,0.5,0,0.8C119,36.9,118.7,37.1,118.3,37.3z"/>
	<path class="st6" d="M14.8,44.8c-0.2,0.3-0.3,0.6-0.4,0.9c-0.3,0-0.6,0-0.9,0c-0.5-0.4-0.6-0.9,0-1.4
		C13.9,44.2,14.4,44.1,14.8,44.8z"/>
	<path class="st7" d="M90.2,60.5c0,0.3,0,0.6,0,0.9c-0.3,0.1-0.6,0.3-0.9,0.5c-0.7-0.3-0.6-0.8-0.6-1.3C89.5,60,89.5,60,90.2,60.5z"
		/>
	<path class="st7" d="M119.3,97.4c0,0.4,0,0.6,0,0.9c-0.3,0.1-0.6,0.3-0.8,0.4c-0.7-0.2-0.6-0.8-0.6-1.3
		C118.5,96.9,118.5,96.9,119.3,97.4z"/>
	<path class="st7" d="M292.2,72.9c0.6-0.7,1-0.6,1.4,0c0,0.3,0,0.6,0,0.9c-0.3,0.1-0.6,0.3-1,0.5c-0.1-0.2-0.2-0.4-0.4-0.8
		C292.2,73.4,292.2,73.2,292.2,72.9z"/>
	<path class="st6" d="M281.8,95c-0.4,0-0.7,0-1.1,0c-0.1-0.3-0.3-0.6-0.4-0.9c0.2-0.2,0.4-0.3,0.5-0.5c0.8,0,0.8,0,1.3,0.5
		C282.1,94.3,282,94.6,281.8,95z"/>
	<path class="st7" d="M263.6,37.3c-0.2-0.2-0.3-0.3-0.5-0.5c0-0.3,0-0.6,0-0.9c0.7-0.6,0.7-0.6,1.4-0.1c0,0.3,0,0.6,0,1
		C264.3,37,264,37.1,263.6,37.3z"/>
	<path class="st5" d="M37.5,93.6c0.4,0.3,0.6,0.6,0.4,1c-0.3,0.5-0.8,0.4-1.3,0.4c-0.1-0.3-0.3-0.6-0.5-0.9
		C36.4,93.4,37,93.5,37.5,93.6z"/>
	<path class="st5" d="M183.4,94.5c-0.2,0.2-0.4,0.4-0.5,0.5c-0.3,0-0.6,0-0.9,0c-0.1-0.3-0.3-0.6-0.5-0.9c0.3-0.7,0.8-0.6,1.5-0.5
		C183.1,93.8,183.2,94.2,183.4,94.5z"/>
	<path class="st6" d="M102,94.1c-0.2,0.3-0.3,0.6-0.4,0.9c-0.1,0.1-0.9,0.1-1.1-0.2c-0.4-0.3-0.3-0.5,0.1-1.2
		C101.1,93.5,101.6,93.4,102,94.1z"/>
	<path class="st1" d="M333.5,72.3c0.4,0.4,0.7,0.6,1.1,0.9c-0.3,0.4-0.6,0.7-0.9,1c-0.3-0.3-0.7-0.6-1-0.8
		C332.7,72.9,333.2,72.7,333.5,72.3z"/>
	<path class="st1" d="M48.6,61.8c-0.1-0.1-0.4-0.4-0.7-0.8c0.3-0.3,0.6-0.6,0.9-0.9c0.4,0.4,0.6,0.7,0.9,1
		C49.4,61.2,49.1,61.5,48.6,61.8z"/>
	<path class="st1" d="M332.7,60.9c0.3-0.3,0.5-0.5,0.9-0.8c0.3,0.3,0.6,0.6,1,0.9c-0.4,0.4-0.6,0.7-1,1
		C333.3,61.6,333,61.3,332.7,60.9z"/>
	<path class="st1" d="M43.2,60.2c0.1,0.1,0.4,0.4,0.7,0.8c-0.3,0.3-0.6,0.6-0.9,0.9c-0.4-0.4-0.6-0.7-0.9-1
		C42.4,60.7,42.7,60.5,43.2,60.2z"/>
	<path class="st1" d="M276.4,73.2c-0.4,0.4-0.7,0.6-1.1,0.9c-0.2-0.2-0.5-0.5-0.9-0.9c0.3-0.2,0.7-0.5,1.1-0.8
		C275.7,72.6,276.1,72.9,276.4,73.2z"/>
	<path class="st1" d="M362.6,35.4c0.4,0.4,0.7,0.7,1,1c-0.3,0.3-0.6,0.6-1,0.9c-0.3-0.3-0.6-0.5-0.9-0.9
		C362,36.1,362.2,35.8,362.6,35.4z"/>
	<path class="st1" d="M101.1,98.9c-0.4-0.4-0.6-0.7-1-1.1c0.3-0.2,0.7-0.5,1.1-0.8c0.2,0.2,0.5,0.4,0.9,0.8
		C101.8,98.2,101.5,98.5,101.1,98.9z"/>
	<path class="st1" d="M187.3,60.9c0.3-0.3,0.6-0.6,0.9-0.9c0.3,0.3,0.7,0.6,1.1,0.9c-0.3,0.4-0.6,0.7-1,1.1
		C188,61.6,187.7,61.3,187.3,60.9z"/>
	<path class="st1" d="M131.1,60.9c-0.4,0.4-0.7,0.6-1.1,1c-0.2-0.4-0.4-0.7-0.7-1.2c0.1-0.1,0.3-0.4,0.7-0.8
		C130.4,60.3,130.8,60.6,131.1,60.9z"/>
	<path class="st1" d="M193.1,73.4c0.4-0.4,0.6-0.7,0.9-1.1c0.4,0.3,0.7,0.6,1,0.9c-0.3,0.3-0.6,0.7-0.8,1
		C193.7,74.2,193.6,73.6,193.1,73.4z"/>
	<path class="st1" d="M280.4,97.8c0.3-0.3,0.5-0.5,0.9-0.8c0.3,0.3,0.6,0.6,1,0.9c-0.4,0.4-0.6,0.7-1,1
		C281,98.6,280.8,98.2,280.4,97.8z"/>
	<path class="st1" d="M130.1,72.3c0.4,0.4,0.6,0.7,1,1.1c-0.3,0.2-0.7,0.5-1.1,0.8c-0.2-0.2-0.5-0.4-0.9-0.8
		C129.5,73,129.8,72.7,130.1,72.3z"/>
	<path class="st1" d="M368.6,49.6c-0.4-0.4-0.7-0.6-1-0.9c0.3-0.3,0.7-0.5,1.1-0.8c0.1,0.1,0.4,0.4,0.8,0.7
		C369.2,49,368.9,49.3,368.6,49.6z"/>
	<path class="st1" d="M102,36.2c-0.4,0.4-0.7,0.6-1,0.9c-0.2-0.2-0.5-0.5-0.8-0.9c0.2-0.2,0.4-0.5,0.8-0.8
		C101.4,35.7,101.7,35.9,102,36.2z"/>
	<path class="st1" d="M106.9,23.1c0.4,0.4,0.7,0.6,1,0.9c-0.3,0.3-0.7,0.5-1.1,0.8c-0.1-0.1-0.4-0.4-0.8-0.7
		C106.3,23.7,106.6,23.4,106.9,23.1z"/>
	<path class="st1" d="M18.8,36.4c0.4-0.4,0.7-0.6,1.1-1c0.2,0.3,0.5,0.6,0.8,1.1c-0.2,0.2-0.4,0.5-0.8,0.9
		C19.5,37,19.1,36.7,18.8,36.4z"/>
	<path class="st1" d="M253.2,61.1c-0.3,0.3-0.6,0.6-0.9,0.9c-0.3-0.3-0.7-0.6-1.1-0.9c0.3-0.4,0.6-0.7,1-1.1
		C252.6,60.4,252.8,60.7,253.2,61.1z"/>
	<path class="st1" d="M275.5,111.2c-0.4-0.4-0.6-0.7-1-1.1c0.3-0.2,0.7-0.5,1.1-0.8c0.2,0.2,0.5,0.4,0.9,0.8
		C276.1,110.5,275.8,110.9,275.5,111.2z"/>
	<path class="st1" d="M194.1,109.2c0.4,0.4,0.7,0.6,1.1,0.9c-0.3,0.4-0.6,0.7-0.9,1c-0.3-0.3-0.7-0.6-1-0.8
		C193.3,109.8,193.8,109.7,194.1,109.2z"/>
	<path class="st1" d="M14,49.6c-0.4-0.4-0.6-0.7-0.9-1c0.2-0.2,0.5-0.5,0.9-0.8c0.2,0.2,0.5,0.4,0.8,0.8C14.6,49,14.3,49.3,14,49.6z
		"/>
	<path class="st1" d="M188.2,109.3c0.4,0.4,0.7,0.6,1,1c-0.3,0.3-0.6,0.5-1,0.9c-0.2-0.2-0.5-0.5-0.9-0.9
		C187.6,109.9,187.9,109.6,188.2,109.3z"/>
	<path class="st1" d="M106.8,111.2c-0.3-0.3-0.5-0.6-0.8-1c0.2-0.2,0.5-0.6,0.8-1c0.4,0.3,0.7,0.6,1.1,1
		C107.6,110.5,107.3,110.8,106.8,111.2z"/>
	<path class="st1" d="M42,85.5c0.3-0.3,0.6-0.5,1-0.8c0.2,0.2,0.5,0.5,1,0.8c-0.3,0.4-0.6,0.7-1,1.1C42.6,86.2,42.4,85.9,42,85.5z"
		/>
	<path class="st1" d="M47.8,73.4c0.4-0.4,0.7-0.6,1.1-1c0.2,0.4,0.4,0.7,0.7,1.2c-0.1,0.1-0.3,0.4-0.7,0.8
		C48.5,74,48.2,73.7,47.8,73.4z"/>
	<path class="st1" d="M339.5,49.7c-0.4-0.4-0.6-0.7-1-1.1c0.3-0.2,0.7-0.5,1.1-0.8c0.2,0.2,0.5,0.4,0.9,0.8
		C340.1,49,339.8,49.3,339.5,49.7z"/>
	<path class="st1" d="M362.6,84.6c0.4,0.4,0.7,0.6,1.1,0.9c-0.3,0.4-0.6,0.7-0.9,1c-0.3-0.3-0.7-0.6-1-0.8
		C361.8,85.2,362.3,85,362.6,84.6z"/>
	<path class="st1" d="M339.4,84.6c0.4,0.4,0.7,0.7,1,1c-0.3,0.3-0.6,0.6-1,0.9c-0.3-0.3-0.6-0.5-0.9-0.9
		C338.8,85.3,339,85,339.4,84.6z"/>
	<path class="st1" d="M194.2,25c-0.4-0.4-0.6-0.7-1-1.1c0.3-0.2,0.7-0.5,1.1-0.8c0.2,0.2,0.5,0.4,0.9,0.8
		C194.8,24.3,194.5,24.7,194.2,25z"/>
	<path class="st1" d="M189.2,24.1c-0.3,0.3-0.6,0.6-0.9,0.9c-0.3-0.3-0.7-0.6-1.1-0.9c0.3-0.4,0.6-0.7,1-1.1
		C188.6,23.4,188.8,23.7,189.2,24.1z"/>
	<path class="st1" d="M281.4,86.6c-0.4-0.4-0.7-0.6-1-1c0.3-0.3,0.6-0.5,1-0.9c0.2,0.2,0.5,0.5,0.9,0.9
		C282,85.9,281.7,86.2,281.4,86.6z"/>
	<path class="st5" d="M350.4,105.9c0.4,0,0.9,0,1.3,0c0,0.3,0,0.6,0,1.1c-0.2,0.3-0.6,0.6-1,0.3C350.2,107,350.3,106.4,350.4,105.9z
		"/>
	<path class="st5" d="M351.8,19.7c0,0.4,0,0.6,0,0.9c-0.7,0.5-0.7,0.5-1.4,0.1c0-0.3,0-0.6,0-1C350.8,19.7,351.3,19.7,351.8,19.7z"
		/>
	<path class="st5" d="M32.1,105.9c0,0.4,0,0.7,0,1.1c-0.3,0.1-0.6,0.3-0.9,0.4c-0.2-0.2-0.3-0.4-0.5-0.5c0-0.3,0-0.6,0-1
		C31.1,105.9,31.5,105.9,32.1,105.9z"/>
	<path class="st5" d="M118.3,95c0,0-0.1-0.1-0.1-0.1c-0.1-0.1-0.2-0.2-0.3-0.3c0-0.3,0-0.6,0-1c0.4,0,0.9,0,1.4,0c0,0.3,0,0.7,0.1,1
		c-0.2,0.2-0.3,0.3-0.4,0.5C118.6,95,118.4,95,118.3,95z"/>
	<path class="st5" d="M30.6,33c0-0.3,0-0.6,0-1c0.4,0,0.9,0,1.4,0c0,0.3,0,0.7,0.1,1C31.3,33.5,31.3,33.5,30.6,33z"/>
	<path class="st5" d="M88.8,70c0-0.3,0-0.6,0-1c0.5,0,0.9,0,1.4,0c0,0.4,0,0.7,0,1C89.5,70.5,89.5,70.5,88.8,70z"/>
	<path class="st5" d="M350.4,56.6c0.5,0,0.9,0,1.4,0c0,0.4,0,0.7,0,1c-0.1,0.1-0.3,0.3-0.5,0.5c-0.3-0.1-0.6-0.2-1-0.4
		C350.3,57.3,350.3,56.9,350.4,56.6z"/>
	<path class="st5" d="M292.3,68.9c0.4,0,0.9,0,1.3,0c0,0.3,0,0.6,0,1.1c-0.2,0.3-0.6,0.6-1,0.3C292,70,292.1,69.5,292.3,68.9z"/>
	<path class="st5" d="M89.8,58.1c-0.2,0-0.4,0-0.6,0c-0.1-0.1-0.2-0.3-0.4-0.4c0-0.3,0-0.6,0-1c0.5,0,0.9,0,1.4,0c0,0.4,0,0.7,0,1
		C90,57.8,89.9,57.9,89.8,58.1z"/>
	<path class="st5" d="M117.9,32c0.5,0,0.9,0,1.4,0c0,0.4,0,0.7,0,1c-0.1,0.1-0.3,0.3-0.5,0.5c-0.3-0.1-0.6-0.2-1-0.4
		C117.8,32.7,117.8,32.3,117.9,32z"/>
	<path class="st5" d="M264.6,32c0,0.4,0,0.7,0,1c-0.7,0.5-0.7,0.5-1.4,0c0-0.3,0-0.6,0-1C263.6,32,264,32,264.6,32z"/>
	<path class="st5" d="M30.7,19.7c0.5,0,0.9,0,1.4,0c0,0.3,0,0.7,0,1c-0.6,0.5-0.6,0.5-1.4,0C30.7,20.4,30.7,20.1,30.7,19.7z"/>
	<path class="st5" d="M32.1,56.6c0,0.4,0,0.7,0,1c-0.7,0.6-0.7,0.6-1.4,0c0-0.3,0-0.6,0-1C31.1,56.6,31.5,56.6,32.1,56.6z"/>
	<path class="st5" d="M264.5,45.3c-0.5,0.6-0.9,0.5-1.4,0c0-0.3,0-0.6,0-1c0.4,0,0.9,0,1.4,0C264.5,44.7,264.5,45,264.5,45.3z"/>
	<path class="st5" d="M176,81.2c0.5,0,0.9,0,1.4,0c0,0.3,0,0.7,0,1c-0.6,0.5-0.6,0.5-1.4,0C176,82,176,81.7,176,81.2z"/>
	<path class="st5" d="M30.6,45.3c0-0.3,0-0.6,0-1c0.4,0,0.9,0,1.4,0c0.1,0.5,0.2,1-0.3,1.3C31.3,45.9,30.9,45.7,30.6,45.3z"/>
	<path class="st7" d="M257.7,44.3c0.3,0,0.6,0,0.9,0c0,0.4,0,0.7,0,1.1c-0.6,0.5-0.8,0.5-1.2,0.2C257,45.1,257.2,44.7,257.7,44.3z"
		/>
	<path class="st2" d="M344.5,48.2c0.3-0.1,0.6-0.3,0.9-0.4c0.7,0.3,0.5,0.8,0.5,1.4c-0.4,0-0.9,0-1.4,0
		C344.5,48.9,344.5,48.6,344.5,48.2z"/>
	<path class="st2" d="M26.2,24.6c-0.5,0-0.9,0-1.4,0c0-0.4,0-0.7,0-1c0.3-0.1,0.6-0.3,0.8-0.4C26,23.2,26.2,23.6,26.2,24.6z"/>
	<path class="st2" d="M112,23.5c0.3-0.1,0.6-0.3,0.9-0.4c0.7,0.3,0.5,0.8,0.5,1.4c-0.4,0-0.9,0-1.4,0C112,24.3,112,23.9,112,23.5z"
		/>
	<path class="st7" d="M113.4,105.9c0,0.4,0,0.7,0,1c-0.7,0.6-0.9,0.6-1.3,0.2c-0.3-0.3-0.3-0.5,0.2-1.2
		C112.7,105.8,113.1,105.9,113.4,105.9z"/>
	<path class="st2" d="M344.5,97.4c0.3-0.1,0.6-0.3,0.9-0.4c0.7,0.3,0.5,0.8,0.5,1.4c-0.4,0-0.9,0-1.4,0
		C344.5,98.1,344.5,97.8,344.5,97.4z"/>
	<path class="st2" d="M171.5,73.9c-0.5,0-0.9,0-1.4,0c0-0.3,0-0.7,0-1c0.3-0.1,0.6-0.3,1-0.5c0.1,0.2,0.3,0.4,0.4,0.7
		C171.5,73.2,171.5,73.5,171.5,73.9z"/>
	<path class="st2" d="M200.1,97c0.2,0.2,0.3,0.3,0.5,0.5c0,0.3,0,0.6,0,1c-0.4,0-0.9,0-1.4,0c0-0.3,0-0.6-0.1-1
		C199.4,97.3,199.7,97.2,200.1,97z"/>
	<path class="st7" d="M113.4,19.7c0,0.4,0,0.7,0,1c-0.7,0.5-0.9,0.5-1.2,0.2c-0.5-0.4-0.3-0.8,0.2-1.2
		C112.6,19.7,112.9,19.7,113.4,19.7z"/>
	<path class="st7" d="M200.6,81.3c0,0.3,0,0.7,0,1c-0.3,0.4-0.6,0.6-1.1,0.3c-0.3-0.2-0.5-0.7-0.3-1C199.5,81.1,200,81.2,200.6,81.3
		z"/>
	<path class="st7" d="M345.5,33.4c-1.1-0.2-1.3-0.4-0.6-1.4c0.3,0,0.6,0,1,0c0,0.3,0,0.7,0.1,1C345.7,33.2,345.6,33.3,345.5,33.4z"
		/>
	<path class="st7" d="M25.2,19.7c0.3,0,0.6,0,1,0c0,0.3,0,0.7,0,1c-0.7,0.5-0.8,0.6-1.2,0.2C24.6,20.5,24.7,20.3,25.2,19.7z"/>
	<path class="st2" d="M112.9,109.3c0.2,0.2,0.3,0.3,0.5,0.5c0,0.3,0,0.7,0,1c-0.5,0-0.9,0-1.4,0c0-0.3,0-0.7,0-1
		C112.3,109.6,112.5,109.5,112.9,109.3z"/>
	<path class="st2" d="M258.7,49.2c-0.5,0-0.9,0-1.4,0c0-0.3,0-0.7,0-1c0.2-0.1,0.6-0.3,1-0.5c0.1,0.2,0.2,0.4,0.4,0.7
		C258.7,48.5,258.7,48.8,258.7,49.2z"/>
	<path class="st7" d="M286.7,81.2c0.3,0,0.6,0,1,0c0,0.3,0,0.7,0,1c-0.6,0.5-0.8,0.6-1.2,0.2C286.2,82.1,286.2,81.9,286.7,81.2z"/>
	<path class="st7" d="M373.9,56.6c0.3,0,0.6,0,1,0c0,0.3,0,0.7,0,1c-0.6,0.5-0.8,0.6-1.2,0.2C373.4,57.5,373.4,57.3,373.9,56.6z"/>
	<path class="st7" d="M171.1,70.4c-1.1-0.2-1.3-0.4-0.6-1.4c0.3,0,0.6,0,1,0c0,0.3,0,0.7,0.1,1C171.4,70.1,171.2,70.2,171.1,70.4z"
		/>
	<path class="st7" d="M344.9,93.5c0.3,0,0.6,0,1,0c0,0.3,0,0.7,0,1c-0.6,0.5-0.8,0.6-1.2,0.2C344.3,94.4,344.4,94.2,344.9,93.5z"/>
	<path class="st2" d="M287.7,86.2c-0.4,0-0.8,0-1.3,0c0-0.3,0-0.6,0-1c0.2-0.1,0.6-0.3,0.8-0.4C287.9,85,287.8,85.6,287.7,86.2z"/>
	<path class="st2" d="M345.9,36.9c-0.5,0-0.9,0-1.4,0c0-0.4,0-0.7,0-1c0.3-0.1,0.6-0.3,0.8-0.4C345.7,35.5,345.9,35.9,345.9,36.9z"
		/>
	<path class="st7" d="M200.6,93.6c0,0.4,0,0.7,0,1c-0.7,0.6-0.9,0.6-1.3,0.2c-0.3-0.3-0.3-0.5,0.2-1.2
		C199.9,93.5,200.2,93.6,200.6,93.6z"/>
	<path class="st2" d="M199.2,85.1c0.3-0.1,0.6-0.3,0.9-0.4c0.7,0.3,0.5,0.8,0.5,1.4c-0.4,0-0.9,0-1.4,0
		C199.2,85.8,199.2,85.5,199.2,85.1z"/>
	<path class="st2" d="M374.9,61.5c-0.5,0-0.9,0-1.4,0c0-0.4,0-0.7,0-1c0.3-0.1,0.6-0.3,0.9-0.4c0.1,0.1,0.2,0.1,0.3,0.2
		C375.2,60.7,374.9,61.1,374.9,61.5z"/>
	<path class="st7" d="M345.9,44.2c0,0.5,0,0.8,0,1.2c-0.1,0.1-0.3,0.3-0.4,0.4c-0.9-0.1-1.1-0.3-1-0.8c0-0.2,0.1-0.4,0.2-0.5
		C345,44.4,345.4,44.3,345.9,44.2z"/>
</g>
</svg>
